<svg width="986" height="1039" viewBox="0 0 986 1039" fill="none" xmlns="http://www.w3.org/2000/svg">
<path d="M188.233 834.187C231.073 859.687 187.893 899.467 154.233 907.627C140.293 911.027 125.163 912.387 116.153 911.707C108.673 922.757 100.343 933.297 90.6533 942.647C76.2033 956.247 58.8633 962.367 40.6733 960.157C5.99327 956.077 17.5533 916.297 55.9733 929.217C59.5433 930.577 58.3533 932.617 55.4633 931.427C28.2633 921.227 21.4633 954.207 44.9233 955.397C60.0533 956.077 72.6333 948.767 84.0233 937.717C106.293 915.787 119.213 870.567 148.113 838.097C151.343 834.697 154.063 831.467 157.123 828.577C137.743 825.687 115.473 827.047 101.193 829.767C79.7733 833.677 44.4133 846.767 40.3333 872.097C38.4633 883.997 46.7933 893.347 56.9933 893.687C67.7033 894.027 78.5833 884.507 82.4933 873.117C83.0033 870.567 84.8733 870.907 84.8733 873.287C84.7033 888.757 69.9133 897.427 56.6533 897.087C43.2233 896.577 30.6433 888.077 31.4933 870.737C33.0233 840.307 76.2033 827.727 100.513 824.157C119.383 821.437 141.653 820.247 161.713 824.327C165.453 821.437 169.363 819.057 174.463 817.187C179.903 814.977 180.243 817.187 176.163 819.737C174.463 820.927 171.403 823.137 168.513 826.027C175.653 827.897 182.283 830.617 188.233 834.187ZM184.323 837.757C179.223 834.357 172.593 831.807 165.283 830.107C147.943 854.417 135.023 882.807 118.533 908.137C127.203 908.477 138.083 906.777 148.793 903.547C185.683 892.327 211.013 855.607 184.323 837.757Z" fill="#243727"/>
<path d="M238.033 922.757C232.933 933.127 222.563 953.527 212.363 954.377C206.753 954.717 198.763 950.297 203.863 932.447C201.143 936.867 196.553 943.667 191.623 948.427C172.073 967.127 159.153 937.377 184.823 906.607C195.023 894.537 214.573 888.247 224.263 898.787C226.643 901.337 225.283 904.227 222.393 903.717C220.523 897.427 214.233 896.067 207.943 899.467C200.293 903.717 191.453 913.747 185.333 923.777C183.973 926.157 179.383 934.487 178.363 940.947C176.663 952.847 186.013 951.487 194.003 941.967C199.953 934.827 204.713 926.497 209.133 918.167C212.873 911.027 215.253 906.947 220.693 907.287C222.903 907.457 225.453 908.477 227.833 907.967C224.263 911.537 214.233 929.387 212.023 939.757C210.663 946.727 211.513 949.957 213.723 949.957C220.863 950.297 232.083 928.707 235.653 921.397C237.183 918.337 239.733 919.357 238.033 922.757Z" fill="#243727"/>
<path d="M277.406 889.437C279.106 889.437 278.766 893.177 277.066 893.177H267.206C261.426 903.037 254.626 912.047 244.596 921.227C243.066 925.647 240.686 938.567 240.686 938.567C238.136 949.957 245.956 951.487 251.566 947.407C259.386 941.627 264.996 930.917 269.586 921.737C270.946 918.677 273.496 919.357 271.796 922.757C264.316 938.397 261.426 942.987 255.136 949.277C245.956 958.117 229.126 955.227 231.676 936.527C233.206 924.967 239.496 906.437 244.936 893.177H236.096C234.226 893.177 234.566 889.437 236.436 889.437H246.636C250.546 880.937 254.796 872.607 259.046 865.297C270.776 844.727 289.136 847.617 276.556 874.817C274.176 879.917 271.796 884.677 269.246 889.437H277.406ZM274.006 872.097C277.236 864.957 279.616 849.827 269.076 864.617C264.996 870.397 261.256 879.747 257.006 889.437H265.506C268.736 883.657 271.626 877.707 274.006 872.097ZM263.296 893.177H255.306C251.736 901.507 248.506 909.837 246.126 915.787C252.586 909.157 258.366 901.337 263.296 893.177Z" fill="#243727"/>
<path d="M316.029 922.927C311.099 933.127 302.429 951.147 291.379 953.867C285.599 955.227 275.229 950.127 282.029 932.447C284.579 925.477 290.699 916.637 292.569 912.387C294.949 906.777 288.999 904.567 279.479 904.397L277.439 909.837C273.359 920.547 265.199 939.417 256.869 947.407C255.509 948.597 254.489 946.727 255.509 945.197C268.939 927.517 278.289 901.847 281.689 882.807C283.389 873.287 294.439 877.537 292.059 888.927C291.039 893.687 285.599 898.277 282.709 900.317C288.999 900.657 297.839 900.487 306.169 899.637C307.359 902.017 304.639 908.477 302.599 912.727C300.049 917.997 282.709 949.107 292.909 949.617C299.879 949.787 310.419 928.537 313.989 921.227C315.519 918.337 317.729 919.527 316.029 922.927Z" fill="#243727"/>
<path d="M383.82 923.097C372.26 946.557 367.84 953.697 343.36 962.537C332.65 981.747 315.82 1007.76 290.66 1007.76C273.66 1007.76 271.96 996.537 277.06 987.017C280.29 980.727 286.41 976.137 293.04 973.077C304.43 967.637 320.58 964.747 334.35 960.837C340.81 949.617 346.25 931.427 348.97 922.587C343.19 932.787 332.14 953.867 319.05 953.867C315.65 953.867 309.7 952.677 308.34 946.217C306.81 938.907 311.06 932.617 314.12 926.497C313.1 926.497 311.57 925.987 312.59 923.777L315.65 917.827C319.05 911.367 322.62 904.397 325.17 899.127C326.53 896.407 328.57 895.557 331.8 895.557H342.17C340.64 896.917 337.92 898.107 335.88 901.677C330.1 911.537 325.34 921.567 320.58 931.767C312.42 949.447 319.56 956.247 330.61 943.497C340.13 932.447 350.84 912.557 357.3 899.127C358.66 896.407 360.7 895.557 363.93 895.557H373.11C366.65 899.977 364.1 906.777 359.85 918.167C355.6 929.557 351.18 943.667 346.25 957.097C353.73 954.887 364.1 949.787 370.73 940.267C376 932.617 379.74 924.797 381.44 921.567C382.97 918.507 385.52 919.697 383.82 923.097ZM331.29 966.277C320.24 969.167 305.62 972.567 295.93 976.817C278.59 984.297 272.13 1004.36 286.75 1004.36C301.71 1004.36 319.73 983.277 327.55 972.567L331.29 966.277Z" fill="#243727"/>
<path d="M429.45 922.927C421.12 940.607 414.32 954.717 395.62 954.717C368.76 954.717 377.6 924.117 389.84 907.627C396.13 899.127 404.46 894.197 412.62 894.197C421.12 894.197 425.2 898.957 424.35 905.927C423.67 911.537 416.7 918.677 412.96 914.937C414.83 912.727 417.38 909.327 418.23 906.267C419.76 900.317 418.06 897.937 414.83 897.937C408.71 897.937 401.4 905.757 396.64 912.557C393.58 916.977 387.29 928.707 387.29 938.567C387.29 945.367 390.01 951.657 397.32 951.657C412.11 951.657 420.27 935.167 427.07 921.737C428.6 918.677 430.98 919.527 429.45 922.927Z" fill="#243727"/>
<path d="M426.18 926.497C425.16 926.497 423.63 925.987 424.65 923.777L433.66 904.227C435.19 901.167 432.64 897.937 431.96 897.087L441.31 896.917C446.75 896.917 446.75 898.787 444.88 902.867L431.28 934.657C428.05 942.137 424.48 949.617 420.74 957.097C430.94 953.187 438.08 950.637 445.73 939.417C451.17 931.427 454.23 924.457 455.93 921.227C457.46 918.167 460.01 919.357 458.31 922.757C446.75 946.387 442.33 953.697 417.85 962.537C407.14 981.747 390.31 1007.76 365.15 1007.76C348.15 1007.76 346.45 996.537 351.55 987.017C354.78 980.727 360.9 976.137 367.53 973.077C378.92 967.637 395.07 964.747 408.84 960.837C410.71 957.607 412.75 954.207 414.28 950.977C418.36 942.817 423.29 932.447 426.18 926.497ZM405.61 966.277C394.73 969.167 380.11 972.567 370.42 976.817C352.91 984.297 346.62 1004.36 361.07 1004.36C376.03 1004.36 394.22 983.277 401.87 972.567C403.23 970.697 404.42 968.487 405.61 966.277ZM452.02 882.977C451.34 886.887 447.77 889.947 443.86 889.947C439.95 889.947 437.4 886.887 437.91 882.977C438.59 879.067 442.33 876.007 446.07 876.007C449.98 876.007 452.7 879.067 452.02 882.977Z" fill="#243727"/>
<path d="M517.769 922.757C512.669 933.127 502.299 953.527 492.099 954.377C486.489 954.717 478.499 950.297 483.599 932.447C480.879 936.867 476.289 943.667 471.359 948.427C451.809 967.127 438.889 937.377 464.559 906.607C474.759 894.537 494.309 888.247 503.999 898.787C506.379 901.337 505.019 904.227 502.129 903.717C500.259 897.427 493.969 896.067 487.679 899.467C480.029 903.717 471.189 913.747 465.069 923.777C463.709 926.157 459.119 934.487 458.099 940.947C456.399 952.847 465.749 951.487 473.739 941.967C479.689 934.827 484.449 926.497 488.869 918.167C492.609 911.027 494.989 906.947 500.429 907.287C502.639 907.457 505.189 908.477 507.569 907.967C503.999 911.537 493.969 929.387 491.759 939.757C490.399 946.727 491.249 949.957 493.459 949.957C500.599 950.297 511.819 928.707 515.389 921.397C516.919 918.337 519.469 919.357 517.769 922.757Z" fill="#243727"/>
<path d="M680.527 973.077C685.457 974.267 685.627 977.667 679.167 976.137C671.347 974.097 654.517 972.907 640.917 973.077C619.157 1004.53 572.917 1023.06 553.877 1016.09C522.257 1004.53 556.427 977.327 598.757 971.377C607.597 970.017 624.087 968.827 634.797 968.657C643.127 954.547 648.397 942.647 651.967 926.837L652.647 923.947C642.447 933.637 610.317 957.267 582.267 947.917C561.017 940.607 547.587 907.797 565.947 869.207C552.857 855.607 549.627 835.887 565.267 819.907C567.647 817.357 570.197 817.697 567.477 821.267C556.257 835.377 558.297 851.697 568.667 864.107C569.687 861.897 571.047 859.687 572.407 857.477C590.427 828.067 624.767 811.407 652.137 815.657C704.667 823.817 693.107 886.207 621.197 887.227C604.707 887.567 587.367 882.807 576.487 875.497C561.527 907.797 568.157 935.847 588.047 942.307C610.487 949.617 641.427 931.597 646.187 920.207C656.047 897.087 667.607 903.887 666.417 912.557C664.037 931.427 655.707 948.257 643.297 968.657C658.427 968.827 670.327 970.527 680.527 973.077ZM652.987 820.757C629.867 817.357 599.947 835.547 583.967 861.727C582.097 864.787 580.227 868.017 578.697 871.077C589.237 879.067 606.577 883.657 623.917 881.957C681.207 876.177 694.637 827.047 652.987 820.757ZM632.077 973.247C621.367 973.587 610.317 974.437 600.797 975.967C570.707 980.557 533.307 1006.4 558.297 1011.67C573.427 1015.07 612.187 1001.81 632.077 973.247Z" fill="#243727"/>
<path d="M737.854 922.077C734.964 928.537 725.444 952.677 711.164 952.677C706.064 952.677 702.494 950.807 700.284 948.257C695.524 951.827 690.424 954.207 685.494 954.037C672.574 953.697 670.704 938.227 677.164 923.097C683.794 907.457 697.904 894.197 709.464 894.537C722.384 894.707 724.254 910.347 717.794 925.477C715.244 931.427 709.974 939.417 703.514 945.537C704.874 948.087 707.424 949.787 711.504 949.787C722.384 949.787 731.224 928.707 735.304 920.547C736.154 918.847 739.044 919.527 737.854 922.077ZM713.034 900.147C705.724 898.107 695.184 908.987 688.894 922.417C682.264 936.357 680.734 948.257 686.854 950.127C690.084 950.977 694.334 949.277 698.414 945.877C696.544 943.157 695.694 940.097 695.694 937.547C695.864 933.637 697.394 930.237 701.644 930.237C704.534 930.237 706.744 932.617 706.744 935.337C706.744 936.017 706.574 936.527 706.404 937.207C708.274 934.487 710.144 931.257 711.674 928.027C718.304 914.087 719.154 902.017 713.034 900.147ZM743.634 867.847C742.274 870.737 713.034 883.487 711.844 882.977C710.994 882.467 710.824 881.447 711.334 880.767C712.014 879.407 729.524 867.507 732.244 865.297C734.964 863.257 738.704 861.557 742.104 863.257C743.804 864.107 744.484 866.147 743.634 867.847Z" fill="#243727"/>
<path d="M781.537 922.927C776.607 933.127 767.937 951.147 756.887 953.867C751.107 955.227 740.737 950.127 747.537 932.447C750.087 925.477 756.207 916.637 758.077 912.387C760.457 906.777 754.507 904.567 744.987 904.397L742.947 909.837C738.867 920.547 730.707 939.417 722.377 947.407C721.017 948.597 719.997 946.727 721.017 945.197C734.447 927.517 743.797 901.847 747.197 882.807C748.897 873.287 759.947 877.537 757.567 888.927C756.547 893.687 751.107 898.277 748.217 900.317C754.507 900.657 763.347 900.487 771.677 899.637C772.867 902.017 770.147 908.477 768.107 912.727C765.557 917.997 748.217 949.107 758.417 949.617C765.387 949.787 775.927 928.537 779.497 921.227C781.027 918.337 783.237 919.527 781.537 922.927Z" fill="#243727"/>
<path d="M825.527 921.907C819.237 936.017 809.037 958.797 789.827 953.017C787.447 954.037 785.067 954.717 782.857 954.717C762.287 954.717 766.197 931.087 774.357 930.747C778.947 922.077 784.557 911.027 788.977 901.337C792.037 894.707 797.137 887.567 803.087 886.717C805.637 886.377 807.677 886.717 809.377 887.567C812.437 889.097 811.757 891.987 808.697 890.457C806.997 889.777 804.957 889.437 803.257 890.287C795.437 894.027 797.137 905.757 799.687 911.877C802.407 918.337 806.147 924.457 805.807 931.937C805.467 938.567 800.367 946.387 793.737 950.807L794.927 950.977C800.707 951.827 805.977 948.257 810.227 943.157C814.137 938.397 819.407 927.857 822.977 920.887C823.827 919.187 826.377 920.207 825.527 921.907ZM795.437 931.937C795.947 921.227 791.867 907.287 793.227 899.637C788.637 908.817 781.327 923.607 777.247 931.087C777.247 931.087 780.987 930.917 780.817 936.527C780.477 942.987 784.047 947.747 787.957 949.617C791.697 946.727 794.927 940.947 795.437 931.937ZM785.067 951.147C781.497 948.937 778.607 944.857 778.267 938.397C772.827 943.837 775.037 951.827 781.667 951.827C782.857 951.827 784.047 951.657 785.067 951.147Z" fill="#243727"/>
<path d="M857.633 857.307C861.714 851.357 865.284 848.807 869.023 848.977H869.873C872.083 849.147 874.633 850.167 877.013 849.657C868.344 856.287 851.004 883.827 839.614 906.437C837.404 910.857 835.194 915.787 833.494 920.887C840.634 912.047 851.344 900.827 861.203 897.087C883.133 888.927 881.094 907.967 868.174 917.147C863.074 920.717 858.483 923.097 851.003 923.777C844.543 939.587 855.423 960.837 871.063 944.177C875.313 939.587 880.073 930.747 884.833 920.887C886.193 918.167 888.234 919.697 887.044 922.417C873.614 953.357 863.073 956.077 853.214 955.057C847.094 954.377 841.823 949.447 840.123 940.607C838.083 929.557 844.374 921.397 848.114 921.057C851.854 921.397 857.634 919.187 861.544 915.957C872.254 907.287 864.773 895.387 845.224 912.047C840.804 915.957 835.874 921.057 831.284 927.517C828.224 933.297 823.633 951.657 826.523 954.037H815.813C813.433 954.037 813.773 952.507 814.453 950.297C817.513 938.567 823.294 928.877 828.393 917.147C820.573 931.937 813.773 944.177 810.373 947.407C809.013 948.597 807.993 946.727 809.013 945.197C820.573 929.897 843.013 879.067 857.633 857.307Z" fill="#243727"/>
<path d="M946.421 922.757C941.321 933.127 930.951 953.527 920.751 954.377C915.141 954.717 907.151 950.297 912.251 932.447C909.531 936.867 904.941 943.667 900.011 948.427C880.461 967.127 867.541 937.377 893.211 906.607C903.411 894.537 922.961 888.247 932.651 898.787C935.031 901.337 933.671 904.227 930.781 903.717C928.911 897.427 922.621 896.067 916.331 899.467C908.681 903.717 899.841 913.747 893.721 923.777C892.361 926.157 887.771 934.487 886.751 940.947C885.051 952.847 894.401 951.487 902.391 941.967C908.341 934.827 913.101 926.497 917.521 918.167C921.261 911.027 923.641 906.947 929.081 907.287C931.291 907.457 933.841 908.477 936.221 907.967C932.651 911.537 922.621 929.387 920.411 939.757C919.051 946.727 919.901 949.957 922.111 949.957C929.251 950.297 940.471 928.707 944.041 921.397C945.571 918.337 948.121 919.357 946.421 922.757Z" fill="#243727"/>
<path d="M522.5 655C698.403 655 841 512.403 841 336.5C841 160.597 698.403 18 522.5 18C346.597 18 204 160.597 204 336.5C204 512.403 346.597 655 522.5 655Z" fill="#F4F1E2"/>
<path d="M552.343 558.431C540.744 561.178 529.255 564.526 518.054 568.573C512.458 570.605 506.933 572.823 501.57 575.333C496.22 577.851 490.984 580.638 486.265 584.014C483.909 585.696 481.697 587.55 479.831 589.614C477.966 591.667 476.494 593.999 475.959 596.413C475.411 598.821 475.942 601.279 477.324 603.508C478.712 605.734 480.746 607.709 483.018 609.422C487.574 612.866 492.947 615.454 498.364 617.882C503.79 620.298 509.362 622.43 515.002 624.393C526.282 628.327 537.82 631.606 549.397 634.785C560.972 637.986 572.631 640.956 584.149 644.69C587.025 645.638 589.891 646.641 592.724 647.782C595.554 648.93 598.363 650.195 601.049 651.851C602.383 652.693 603.705 653.612 604.875 654.841C606.028 656.036 607.121 657.611 607.366 659.56C607.626 661.514 606.883 663.373 605.941 664.764C605.001 666.215 603.801 667.296 602.61 668.35C600.166 670.36 597.537 671.98 594.851 673.436C592.159 674.877 589.429 676.223 586.653 677.434C581.114 679.895 575.474 682.056 569.798 684.093C558.441 688.174 546.922 691.646 535.485 695.319C524.032 698.964 512.589 702.633 501.176 706.389C478.362 713.923 455.624 721.736 433.423 730.898C422.334 735.495 411.381 740.442 400.796 746.096C390.235 751.764 379.966 758.107 370.859 765.92C368.606 767.892 366.389 769.915 364.336 772.097C362.263 774.258 360.297 776.526 358.522 778.937C354.918 783.715 352.041 789.062 350.222 794.772C349.337 797.633 348.72 800.576 348.381 803.554C348.036 806.534 348.054 809.546 348.271 812.536C348.724 818.529 350.298 824.39 352.435 830C350.25 824.409 348.621 818.556 348.115 812.549C347.872 809.552 347.827 806.528 348.148 803.53C348.463 800.534 349.058 797.568 349.924 794.68C351.705 788.917 354.558 783.502 358.146 778.659C359.913 776.214 361.872 773.914 363.94 771.721C365.988 769.506 368.199 767.453 370.449 765.449C379.542 757.512 389.801 751.053 400.35 745.272C410.924 739.505 421.865 734.45 432.94 729.746C455.112 720.37 477.815 712.349 500.582 704.611C511.972 700.753 523.389 696.983 534.813 693.238C546.231 689.462 557.709 685.892 568.944 681.744C574.563 679.672 580.137 677.48 585.562 675.013C588.285 673.798 590.938 672.459 593.531 671.042C596.114 669.616 598.608 668.034 600.792 666.205C601.836 665.267 602.88 664.292 603.56 663.196C604.271 662.115 604.655 660.982 604.5 659.93C604.367 658.872 603.697 657.819 602.773 656.883C601.864 655.933 600.695 655.121 599.486 654.376C597.041 652.895 594.341 651.697 591.596 650.613C588.844 649.533 586.026 648.573 583.187 647.664C571.8 644.08 560.122 641.208 548.502 638.104C536.874 635.018 525.24 631.823 513.782 627.939C508.053 626 502.37 623.884 496.792 621.459C493.997 620.25 491.247 618.972 488.515 617.557C485.781 616.135 483.1 614.554 480.567 612.663C478.042 610.78 475.633 608.557 473.802 605.687C472.895 604.254 472.189 602.616 471.821 600.867C471.45 599.119 471.464 597.268 471.832 595.538C472.585 592.051 474.498 589.158 476.621 586.759C478.767 584.345 481.184 582.305 483.697 580.473C488.733 576.809 494.137 573.886 499.63 571.24C505.132 568.607 510.755 566.295 516.437 564.175C527.811 559.955 539.412 556.466 551.179 553.57L553.607 552.973L554.777 557.857L552.344 558.433L552.343 558.431Z" fill="url(#paint0_linear_280_15)"/>
<path d="M548.842 564.028C568.72 566.787 588.444 570.52 608.015 574.952C627.563 579.458 647.011 584.636 665.861 591.8C670.566 593.606 675.226 595.555 679.798 597.731C684.368 599.907 688.859 602.305 693.12 605.154C695.257 606.563 697.324 608.111 699.275 609.83C701.231 611.536 703.078 613.43 704.617 615.634C706.155 617.819 707.406 620.342 707.902 623.117C708.419 625.883 708.069 628.816 707.045 631.369C706.032 633.941 704.467 636.158 702.743 638.136C701.029 640.145 699.047 641.82 697.05 643.441C692.983 646.589 688.604 649.194 684.129 651.55C683 652.121 681.889 652.716 680.745 653.268L677.299 654.903L670.341 657.753C665.738 659.666 661.164 661.652 656.62 663.706C638.467 671.954 620.735 681.22 603.985 692.04C595.615 697.449 587.506 703.275 579.909 709.709C572.339 716.149 565.204 723.201 559.489 731.32C556.659 735.382 554.161 739.704 552.435 744.336C552.044 745.505 551.581 746.655 551.295 747.856C551.137 748.452 550.963 749.044 550.818 749.643L550.467 751.457L550.295 752.365L550.191 753.283L549.985 755.119L549.93 756.965L549.903 757.888L549.955 758.81L550.058 760.654L550.322 762.482L550.454 763.397L550.664 764.297L551.089 766.097C551.815 768.451 552.668 770.782 553.866 772.949C556.173 777.33 559.304 781.257 562.844 784.743C569.977 791.703 578.505 797.117 587.349 801.719C596.229 806.3 605.486 810.134 614.9 813.503C605.451 810.237 596.148 806.503 587.2 802.01C578.288 797.493 569.67 792.162 562.387 785.211C558.774 781.727 555.55 777.781 553.145 773.333C551.899 771.132 550.996 768.754 550.225 766.343L549.767 764.498L549.542 763.574L549.395 762.634L549.103 760.754L548.976 758.855L548.913 757.905L548.93 756.954L548.967 755.051L549.158 753.158L549.255 752.211L549.421 751.275L549.763 749.404C549.905 748.787 550.077 748.177 550.233 747.563C550.515 746.325 550.974 745.143 551.363 743.939C553.081 739.172 555.582 734.736 558.416 730.574C564.139 722.255 571.278 715.05 578.847 708.466C586.443 701.889 594.548 695.933 602.912 690.396C619.652 679.323 637.37 669.818 655.531 661.326C660.077 659.211 664.654 657.164 669.264 655.189L676.155 652.279L679.467 650.661C680.569 650.115 681.657 649.517 682.752 648.948C687.095 646.602 691.312 644.022 695.125 641.002C696.986 639.456 698.825 637.865 700.338 636.044C701.871 634.249 703.196 632.296 703.996 630.192C704.804 628.094 705.029 625.866 704.608 623.716C704.198 621.561 703.175 619.5 701.823 617.623C700.478 615.735 698.795 614.033 696.968 612.478C695.151 610.912 693.191 609.473 691.14 608.154C687.057 605.486 682.679 603.204 678.2 601.132C673.719 599.059 669.126 597.196 664.477 595.469C645.843 588.617 626.48 583.679 607.022 579.419C587.542 575.19 567.865 571.856 548.144 568.975H548.139C546.773 568.775 545.827 567.505 546.027 566.139C546.226 564.779 547.485 563.836 548.845 564.024L548.842 564.028Z" fill="url(#paint1_linear_280_15)"/>
<path d="M729.471 55.1277C729.471 55.5277 732.404 62.1947 736.004 69.7947C743.604 85.9277 750.537 105.128 755.337 122.995C760.537 142.461 764.671 182.461 761.737 186.328C761.204 186.995 757.204 189.395 752.804 191.395C740.804 197.128 714.671 212.861 698.271 224.061C656.804 252.595 613.204 293.128 572.937 340.328C543.071 375.128 491.737 428.595 470.804 446.195C458.937 456.195 446.937 464.995 446.137 464.061C445.871 463.795 446.537 460.861 447.737 457.395C451.871 444.595 445.204 439.128 434.537 446.461C428.004 450.995 413.737 466.195 404.804 478.061C401.071 483.128 396.671 487.395 394.804 487.928C389.737 489.528 360.537 489.128 358.937 487.661C358.004 486.728 358.537 482.861 360.404 475.661C361.871 469.795 363.204 460.461 363.337 454.995L363.471 444.995L359.604 444.595C356.404 444.195 354.271 445.661 345.737 454.328C340.137 459.795 334.804 464.061 333.871 463.795C332.937 463.395 332.537 463.928 332.937 464.995C333.871 467.395 331.204 472.328 328.937 472.328C328.004 472.328 326.271 471.261 325.071 469.928C323.337 467.928 323.204 466.861 324.804 460.995C325.737 457.261 327.071 454.461 327.737 454.595C329.071 454.861 326.271 432.728 324.804 431.261C324.404 430.861 320.804 432.195 316.671 434.195C312.671 436.328 308.937 437.528 308.404 436.995C307.871 436.461 307.471 426.328 307.604 414.595C307.737 396.061 308.271 390.061 311.871 372.995C316.404 350.595 317.604 342.995 316.671 342.995C314.137 342.995 305.737 371.661 302.804 390.195C301.604 397.395 300.671 400.061 299.737 399.128C296.937 396.328 292.404 397.661 286.404 403.128L280.137 408.461L278.671 405.128C277.471 402.728 277.471 399.395 278.671 392.061C279.471 386.728 281.071 376.461 282.137 369.261C283.604 359.795 283.737 355.661 282.671 353.928C281.604 352.195 282.671 347.395 287.337 332.728C293.604 313.128 296.404 300.195 294.804 297.661C293.337 295.261 287.604 302.061 272.004 325.528C260.537 342.595 256.404 347.795 253.604 348.461C251.737 348.995 249.071 349.795 247.604 350.328C245.471 351.261 245.337 351.128 246.671 348.595C249.337 343.661 248.271 342.728 243.737 346.195C241.204 348.195 238.671 349.661 238.137 349.661C237.471 349.661 235.604 350.995 233.871 352.595C232.137 354.195 230.804 354.861 230.804 354.061C230.804 353.261 231.737 351.928 232.937 350.861C234.004 349.928 235.871 347.528 236.937 345.395C238.004 343.395 239.471 341.795 240.404 342.061C242.271 342.461 251.871 324.861 250.404 323.528C249.204 322.195 237.337 326.328 230.004 330.461C227.071 332.195 224.271 333.261 223.737 332.861C223.337 332.461 223.337 327.528 223.737 321.928L224.404 311.661L238.271 297.661C252.004 283.795 254.271 280.328 249.871 280.328C247.604 280.328 234.137 284.195 229.204 286.328C225.871 287.661 226.004 284.328 230.137 263.528C232.004 254.195 233.337 245.928 233.071 245.261C232.404 243.261 227.337 260.328 224.137 274.861C222.537 281.795 221.071 287.928 220.804 288.461C219.871 289.795 194.937 299.528 194.271 298.861C193.204 297.795 197.471 270.595 200.271 260.328C201.871 254.861 205.337 245.395 208.137 239.261C210.937 233.261 212.937 228.328 212.404 228.461C210.937 228.595 192.004 257.661 193.337 257.661C194.137 257.661 196.271 255.395 198.271 252.595C200.137 249.928 201.337 248.861 200.937 250.195C200.404 251.661 199.471 255.528 198.804 258.861C198.004 262.195 196.537 268.595 195.471 272.995C194.404 277.395 192.937 285.395 192.004 290.728C190.937 297.661 189.871 300.728 188.137 301.661C184.804 303.528 184.004 301.795 185.604 295.528C187.337 288.061 190.404 260.061 189.337 261.261C188.804 261.928 185.737 265.661 182.537 269.661C165.071 291.395 159.604 297.795 151.337 306.461C142.404 315.661 129.737 324.328 125.204 324.328C124.004 324.328 122.671 324.861 122.137 325.528C121.737 326.195 125.471 325.661 130.404 324.195C135.337 322.861 139.871 321.661 140.404 321.661C140.937 321.661 141.071 320.861 140.671 319.795C140.271 318.861 141.337 317.128 143.071 316.061C147.337 313.128 159.604 300.861 163.871 295.128C165.871 292.595 168.404 289.395 169.471 288.328C170.537 287.128 174.671 282.061 178.671 277.261C182.671 272.328 186.137 268.595 186.271 268.728C187.071 269.395 184.137 294.061 182.804 299.261C181.871 302.461 180.137 304.995 177.737 306.195C175.426 307.528 175.249 308.239 177.204 308.328C179.871 308.328 180.271 308.861 179.604 311.928C179.204 314.061 178.671 318.328 178.271 321.661C177.604 327.128 177.604 327.261 178.937 323.661C179.737 321.395 181.071 316.461 181.871 312.461C183.204 306.061 184.004 304.995 187.337 304.195L191.071 303.128L190.404 329.795C189.737 353.661 189.471 356.728 187.204 358.328C185.871 359.395 183.871 360.328 182.671 360.328C181.604 360.328 177.737 363.128 174.271 366.595L167.871 372.995L168.671 366.995L169.337 360.995L167.071 367.928C164.537 375.661 163.337 377.261 154.671 384.728C145.471 392.728 124.137 413.795 120.537 418.595C118.671 420.995 117.604 423.528 118.137 424.328C120.137 427.661 131.471 423.661 154.137 411.395C162.404 406.995 164.671 406.461 173.471 406.195C179.471 406.061 185.471 405.128 188.404 403.795L193.471 401.661V406.195C193.471 409.395 190.937 414.861 184.804 425.128C179.471 433.795 176.537 439.928 177.337 440.728C179.071 442.461 182.537 440.195 190.004 432.328C193.471 428.595 197.071 425.795 197.871 426.061C198.671 426.328 200.271 429.928 201.204 434.061L203.071 441.661L197.337 451.261C184.004 473.128 182.004 477.395 183.604 478.995C184.537 479.928 188.404 477.128 195.604 470.328C201.337 464.861 206.404 460.328 206.804 460.328C207.204 460.328 209.204 463.261 211.204 466.995C213.204 470.595 217.071 475.261 219.737 477.261C224.004 480.461 224.404 481.395 223.737 485.795C223.337 488.595 220.004 496.995 216.271 504.728C212.537 512.328 209.471 519.661 209.471 520.861C209.471 524.728 214.271 523.128 223.337 516.061C229.293 511.527 232.938 510.194 234.271 512.061C235.337 513.661 237.471 514.995 238.804 514.995C241.071 514.995 250.804 505.128 250.804 502.728C250.804 497.261 258.937 512.461 264.137 527.795C266.404 534.328 266.537 536.461 265.204 545.261C263.471 557.661 264.937 560.195 270.404 553.928C274.804 548.861 275.737 548.728 282.137 552.595C290.937 557.661 299.071 555.528 303.604 546.595C306.004 542.061 310.004 529.128 312.271 518.595C313.737 511.528 314.271 510.861 316.671 511.795C318.271 512.328 322.537 512.995 326.137 513.261C331.471 513.661 334.137 513.128 339.204 510.461C342.671 508.595 346.137 506.995 346.671 506.995C347.337 506.995 346.671 510.728 345.204 515.261C342.271 524.728 340.671 538.461 342.004 543.395C342.937 547.395 345.737 548.728 349.871 547.128C353.604 545.661 366.804 532.195 377.871 518.328C385.737 508.461 386.937 507.528 393.337 506.061C404.671 503.395 419.337 495.528 428.004 487.528C432.404 483.395 441.071 477.128 447.071 473.395C463.471 463.395 478.937 450.995 496.137 433.661C512.404 417.528 518.404 410.728 546.137 378.328C555.471 367.261 565.604 355.661 568.671 352.328C571.737 348.995 575.871 344.195 578.004 341.661C596.804 318.595 642.937 271.928 664.671 253.928C688.004 234.461 711.871 217.261 732.004 205.395C747.737 196.061 759.204 189.661 760.671 189.661C760.937 189.661 761.071 203.261 760.937 219.928C760.804 247.661 761.071 251.261 763.871 261.661C768.937 280.595 777.871 298.328 796.404 326.061C808.004 343.395 810.004 347.395 808.804 351.128C807.737 354.461 800.271 358.061 788.804 360.995C765.071 366.861 760.271 375.395 770.137 394.195C772.804 398.995 774.671 403.528 774.271 404.195C773.871 404.861 771.737 405.661 769.471 406.195C762.937 407.395 722.671 427.395 724.404 428.461C725.337 428.995 729.071 429.795 732.804 430.328C763.871 434.195 770.537 439.128 758.537 449.528C742.404 463.395 741.604 465.261 744.004 488.328C745.871 506.728 744.671 512.061 737.604 519.128C727.737 528.861 709.871 528.861 682.004 518.995C637.204 502.995 624.804 500.328 609.071 502.861C603.871 503.795 595.737 506.328 590.937 508.595C573.471 516.861 554.537 540.995 546.004 565.928L542.804 575.395L545.871 572.861C551.204 568.328 553.337 565.395 558.404 556.461C568.671 537.795 582.404 523.395 596.137 516.595C602.937 513.261 604.671 512.995 620.137 512.995L636.804 513.128L659.471 520.728C697.871 533.795 711.337 536.461 725.071 533.661C740.937 530.328 749.604 522.728 752.271 509.795C753.471 503.795 753.337 499.395 751.604 487.261C749.071 469.128 750.137 464.861 759.337 457.661C766.937 451.528 770.804 445.795 770.804 440.595C770.804 435.528 767.337 432.861 758.804 431.528C749.204 430.061 748.004 428.728 755.471 427.661C764.271 426.595 767.604 424.861 774.404 418.061C782.404 410.195 783.071 404.995 777.604 394.461C772.137 383.661 772.004 377.528 777.471 373.661C779.604 372.195 785.604 369.928 790.804 368.861C809.471 364.995 817.471 359.395 817.471 350.195C817.471 343.661 815.071 338.728 802.671 319.395C789.071 298.195 778.537 277.928 773.871 263.795C770.404 253.395 770.271 251.928 769.871 220.595C769.737 202.728 769.871 187.395 770.271 186.461C770.937 184.728 780.271 180.328 796.804 173.795C800.537 172.328 802.671 171.128 801.737 171.128C800.804 170.995 793.471 173.661 785.471 176.861C777.471 180.061 770.671 182.328 770.404 181.928C770.137 181.395 769.737 175.928 769.604 169.661C768.804 141.928 760.271 111.128 745.337 81.6607C739.337 69.6607 729.604 53.3947 729.471 55.1277ZM244.537 287.261C238.937 293.661 225.604 306.195 224.937 305.528C224.671 305.261 224.804 301.395 225.204 296.995L226.137 289.128L235.471 286.061C248.137 282.061 249.071 282.195 244.537 287.261ZM220.137 302.595L219.471 312.995L207.071 324.995C200.271 331.528 194.137 337.128 193.337 337.395C191.871 337.928 191.737 328.328 193.071 312.461C193.737 303.928 194.404 301.128 196.004 300.728C197.204 300.461 202.404 298.461 207.471 296.328C221.204 290.728 220.937 290.461 220.137 302.595ZM293.471 303.128C293.471 305.928 287.871 326.461 284.804 334.995C283.071 339.795 280.937 345.795 280.137 348.328C276.404 358.861 274.137 363.128 263.337 379.128C255.604 390.595 250.004 397.261 245.604 400.595C239.737 404.995 239.071 405.261 238.404 402.995C237.071 397.928 239.604 384.861 242.804 379.661C244.671 376.728 249.071 370.728 252.804 366.328C256.537 361.928 261.204 356.195 263.204 353.528C267.204 348.328 273.471 344.861 276.404 346.328C277.337 346.728 276.937 346.195 275.604 345.128C274.137 343.928 272.404 342.995 271.737 342.995C269.471 342.995 262.804 347.528 262.804 349.128C262.804 350.061 260.004 353.661 256.671 357.261L250.671 363.661L255.071 357.261C257.471 353.661 261.604 346.861 264.137 342.195C270.271 331.261 290.671 301.661 292.271 301.661C292.937 301.661 293.471 302.328 293.471 303.128ZM220.137 327.528V337.261L211.204 343.261C196.271 353.261 193.471 354.195 193.471 349.661C193.471 344.595 198.537 336.995 208.137 327.261C213.471 321.928 218.271 317.661 218.937 317.661C219.603 317.661 220.137 322.061 220.137 327.528ZM240.671 331.928C232.137 345.261 226.137 353.661 225.204 353.661C224.671 353.661 224.137 349.795 224.137 345.128V336.728L231.871 332.595C241.604 327.261 243.871 327.128 240.671 331.928ZM220.137 352.195V362.728L213.871 367.928C210.271 370.728 204.671 374.995 201.071 377.395C195.737 381.128 194.671 381.528 194.004 379.661C192.404 375.661 194.537 365.661 198.004 360.328C202.004 354.195 202.671 351.395 198.804 356.328C197.471 358.195 195.871 359.128 195.337 358.595C194.004 357.395 199.737 351.928 201.337 352.861C202.004 353.261 206.004 350.995 210.271 347.661C214.404 344.328 218.404 341.661 219.071 341.661C219.604 341.661 220.137 346.461 220.137 352.195ZM254.804 351.661C254.804 352.595 245.071 366.595 241.471 370.995L238.671 374.328L239.471 370.995C240.004 369.128 240.937 367.128 241.604 366.328C242.271 365.661 242.804 364.061 242.804 362.728C242.804 359.795 250.404 350.995 252.937 350.995C254.004 350.995 254.804 351.261 254.804 351.661ZM240.137 354.728C240.137 355.261 238.137 356.861 235.871 358.195L231.471 360.461L235.471 357.128C239.871 353.261 240.137 353.128 240.137 354.728ZM240.137 359.261C240.137 361.661 234.404 373.795 231.604 377.261C227.204 382.595 225.471 381.928 225.471 374.995C225.471 370.595 226.271 369.128 231.604 364.461C236.937 359.795 240.137 357.928 240.137 359.261ZM188.137 370.995C186.671 375.795 184.804 382.195 184.137 385.395C183.204 389.128 181.471 391.661 179.071 393.261C177.071 394.461 173.204 396.861 170.404 398.728C165.204 402.195 163.604 401.795 162.404 396.995C162.004 395.395 161.737 396.328 161.604 399.128C161.604 401.795 160.671 404.595 159.871 405.395C153.604 410.328 123.337 424.061 121.871 422.461C120.537 421.128 127.337 413.395 143.871 397.661L160.804 381.528L161.471 387.261L162.137 392.995L163.871 385.261C165.604 377.661 166.004 377.261 177.204 368.995C183.604 364.195 189.204 360.861 189.737 361.395C190.271 361.928 189.604 366.328 188.137 370.995ZM278.137 378.595C275.471 399.661 275.337 399.928 271.737 400.728C270.137 401.128 265.871 402.328 262.137 403.395C246.804 407.661 246.671 409.395 263.737 383.661C272.271 370.861 279.471 360.595 279.871 360.861C280.137 361.261 279.471 369.128 278.137 378.595ZM230.137 362.995C229.737 363.661 228.671 364.328 228.004 364.328C227.204 364.328 227.071 363.661 227.471 362.995C227.871 362.195 228.937 361.661 229.604 361.661C230.404 361.661 230.537 362.195 230.137 362.995ZM212.137 374.861C212.137 375.528 209.604 377.928 206.537 380.195C203.337 382.461 200.004 384.995 198.937 385.795C197.471 387.128 197.204 387.128 197.604 385.795C198.004 384.595 210.404 374.061 211.871 373.795C212.004 373.661 212.137 374.195 212.137 374.861ZM222.804 378.995C225.071 385.795 223.871 388.461 212.137 402.728C201.471 415.795 199.204 417.528 198.137 413.261C197.337 410.328 198.537 406.461 201.871 400.995C202.804 399.528 205.204 395.261 207.337 391.661C212.004 383.795 219.204 373.795 220.271 373.661C220.671 373.661 221.871 376.061 222.804 378.995ZM189.604 384.728C187.871 386.461 187.604 383.261 189.071 379.395C190.004 377.261 190.137 377.395 190.537 380.195C190.804 381.928 190.404 383.928 189.604 384.728ZM234.004 382.461C233.604 384.595 232.137 387.928 230.671 389.661C228.271 392.995 228.137 392.995 228.137 390.061C228.137 387.127 233.337 377.128 234.271 378.061C234.537 378.328 234.404 380.328 234.004 382.461ZM209.471 382.461C209.471 382.861 207.337 385.261 204.804 387.795C202.137 390.328 200.404 392.328 200.804 392.328C201.337 392.328 201.204 392.995 200.671 393.928C200.004 394.995 199.337 394.728 198.671 392.861C197.737 390.595 197.604 390.595 197.604 392.595C197.471 395.928 194.804 395.528 194.804 392.328C194.804 390.595 196.137 389.128 198.271 388.328C200.271 387.528 203.337 385.795 205.204 384.328C208.671 381.528 209.471 381.128 209.471 382.461ZM191.071 399.261C189.737 400.595 186.404 402.061 183.471 402.595L178.404 403.395L181.604 398.995C185.737 393.528 189.604 391.795 191.871 394.728C193.204 396.461 193.071 397.261 191.071 399.261ZM225.471 395.661C225.471 398.061 205.337 438.061 204.671 437.261C204.271 436.995 203.204 433.261 202.137 429.128L200.137 421.528L210.537 409.261C216.137 402.595 221.471 396.328 222.137 395.395C224.004 393.128 225.471 393.261 225.471 395.661ZM234.804 408.195C234.804 420.195 232.937 425.661 231.604 417.395C230.137 407.661 229.871 400.595 231.071 398.461C233.604 393.795 234.804 396.728 234.804 408.195ZM198.804 400.328C198.804 400.995 198.137 401.661 197.337 401.661C196.671 401.661 196.404 400.995 196.804 400.328C197.204 399.528 197.871 398.995 198.271 398.995C198.537 398.995 198.804 399.528 198.804 400.328ZM296.537 403.261C297.337 405.928 295.204 434.995 294.271 435.928C294.004 436.328 292.004 434.595 289.871 432.328C287.471 429.795 284.404 427.928 282.404 427.928C279.071 427.661 278.804 427.128 278.804 422.061C278.804 417.795 279.737 415.395 283.471 410.995C288.271 405.261 293.471 400.461 294.937 400.328C295.471 400.328 296.137 401.661 296.537 403.261ZM275.071 407.395C277.071 410.328 277.071 410.728 274.671 413.795L272.271 416.995L273.071 411.795C273.604 408.061 273.471 406.861 272.404 407.528C271.471 408.061 270.804 410.728 270.804 413.395C270.804 416.995 268.937 421.128 262.804 430.328C255.337 441.528 252.004 444.995 246.937 445.928C245.737 446.195 244.271 443.395 242.671 437.661C240.404 429.928 240.404 428.861 242.137 426.061C244.804 421.928 261.204 408.595 266.137 406.328C271.604 403.928 272.537 403.928 275.071 407.395ZM241.471 408.995C240.537 410.195 239.471 410.728 239.204 410.461C238.271 409.528 240.137 406.995 241.737 406.995C242.537 406.995 242.537 407.795 241.471 408.995ZM257.337 407.928C257.337 408.595 253.604 412.061 249.071 415.928C241.737 422.061 240.804 422.461 240.404 420.061C239.737 416.595 245.604 410.461 251.204 408.595C256.671 406.861 257.471 406.728 257.337 407.928ZM227.737 418.728L228.137 427.795L220.271 438.328C210.671 450.995 208.537 452.461 207.337 447.528C205.871 442.061 212.537 429.528 219.737 424.061C224.004 420.995 225.071 419.528 223.471 419.261C222.271 418.995 220.537 419.528 219.471 420.328C218.271 421.261 217.471 421.395 217.471 420.595C217.471 419.928 218.404 418.595 219.604 417.528C220.671 416.595 222.537 414.061 223.604 411.928C224.804 409.795 226.004 408.461 226.404 408.861C226.804 409.261 227.471 413.661 227.737 418.728ZM768.004 415.795C765.471 418.461 762.271 421.261 760.804 422.061C758.404 423.395 736.137 427.128 736.137 426.195C736.137 424.728 771.071 409.528 772.004 410.461C772.404 410.728 770.537 413.128 768.004 415.795ZM304.671 441.928C304.271 442.461 302.804 442.995 301.337 442.995C298.271 442.995 298.137 439.661 300.271 425.261C302.404 410.328 303.204 410.461 304.271 426.328C304.804 434.328 304.937 441.395 304.671 441.928ZM196.137 418.861C196.137 420.061 193.337 423.795 189.871 426.995L183.737 432.995L187.071 426.995C188.937 423.661 191.204 419.661 192.004 417.928C193.737 414.595 196.137 415.128 196.137 418.861ZM276.137 423.128C276.137 425.528 266.937 436.328 264.804 436.328C263.604 436.328 266.804 430.861 271.071 425.261C275.604 419.528 276.137 419.395 276.137 423.128ZM240.004 439.661C240.937 443.795 241.337 447.528 240.937 447.928C239.737 449.128 236.137 439.528 236.137 434.995C236.137 428.728 238.137 431.261 240.004 439.661ZM286.804 432.995C291.604 435.528 294.804 439.928 294.804 444.328C294.804 448.861 282.804 459.128 275.204 461.128C271.071 462.195 269.471 462.195 269.471 461.128C269.471 458.195 276.404 434.328 277.737 432.595C279.604 430.461 282.137 430.595 286.804 432.995ZM325.071 443.261C325.737 450.595 322.671 464.328 320.137 464.328C319.604 464.328 318.404 462.595 317.471 460.461C316.671 458.328 314.404 454.595 312.671 452.195C307.337 444.861 308.671 440.861 318.137 435.928C320.404 434.728 322.671 434.328 323.204 434.861C323.871 435.528 324.671 439.261 325.071 443.261ZM269.604 447.928C265.604 461.528 252.804 486.461 251.604 482.861C251.337 481.795 250.004 478.195 248.804 474.728C247.471 471.395 246.804 467.795 247.204 466.728C247.471 465.795 248.537 467.661 249.604 470.861C251.204 476.195 251.471 476.461 252.271 473.528C252.671 471.795 252.537 469.261 251.871 468.061C251.337 466.861 250.804 464.861 250.804 463.528C250.804 459.395 270.937 434.595 271.871 437.528C272.137 438.195 271.071 442.995 269.604 447.928ZM228.137 444.195C228.137 450.328 227.871 450.728 225.204 450.061C222.537 449.528 222.404 449.661 224.271 451.261C225.337 452.195 226.671 453.928 227.071 455.128C227.871 457.395 225.204 474.461 223.737 475.795C221.871 477.661 216.404 472.061 212.937 464.995L209.471 457.528L213.071 452.861C215.204 450.328 217.737 447.928 218.937 447.661C220.137 447.261 222.537 444.861 224.271 442.328C226.004 439.795 227.604 437.661 227.871 437.661C228.004 437.661 228.137 440.595 228.137 444.195ZM234.804 444.195C236.537 448.461 235.737 450.995 232.671 450.995C231.337 450.995 230.804 449.395 230.804 445.661C230.804 439.395 232.537 438.728 234.804 444.195ZM257.204 448.195C256.271 449.795 255.071 450.995 254.404 450.995C253.337 450.995 254.137 449.128 256.537 445.928C258.671 443.261 259.204 445.128 257.204 448.195ZM306.804 447.661C306.804 448.728 306.137 449.661 305.471 449.661C304.671 449.661 305.204 451.928 306.671 454.595C310.937 463.128 315.337 475.528 315.071 478.728C314.937 480.328 313.737 483.928 312.404 486.595L309.871 491.395L306.804 486.995C302.804 481.261 300.137 470.061 300.137 457.928C300.137 450.328 300.537 448.328 302.137 448.328C303.204 448.328 304.137 447.661 304.137 446.995C304.137 446.195 304.804 445.661 305.471 445.661C306.271 445.661 306.804 446.595 306.804 447.661ZM444.671 452.995C444.671 463.661 441.204 468.861 430.937 474.328C420.004 480.195 405.471 486.061 404.537 485.128C402.804 483.395 423.737 459.128 433.471 451.395C442.804 444.061 444.804 444.328 444.671 452.995ZM249.737 451.261C248.271 452.728 245.471 451.661 245.471 449.661C245.471 448.061 250.004 447.261 250.671 448.728C250.937 449.395 250.537 450.461 249.737 451.261ZM204.804 453.128C204.937 456.195 203.471 458.461 197.737 464.061C190.671 470.728 186.004 472.861 191.871 466.595C193.471 464.861 194.804 462.728 194.804 461.795C194.804 458.995 201.737 448.195 203.204 448.728C204.004 448.995 204.671 450.861 204.804 453.128ZM360.404 455.128C360.004 462.328 356.271 480.061 354.537 483.395C353.737 485.128 352.404 485.528 349.737 484.861C345.871 483.928 336.537 479.528 333.871 477.395C331.737 475.661 334.004 470.995 336.804 470.995C337.871 470.995 338.804 469.928 338.804 468.595C338.937 464.728 356.271 447.661 359.204 448.728C360.137 448.995 360.671 451.528 360.404 455.128ZM245.471 455.928C245.471 458.595 243.337 456.995 242.404 453.661C241.871 451.395 242.004 451.128 243.604 452.461C244.671 453.261 245.471 454.861 245.471 455.928ZM239.071 457.528C241.071 462.461 241.071 462.861 237.471 468.595C234.271 473.661 229.871 477.395 228.804 476.061C228.004 474.995 231.071 455.528 232.404 454.061C234.804 450.995 236.937 452.195 239.071 457.528ZM294.671 470.328C294.804 474.061 295.337 478.995 296.004 481.395C297.204 485.528 297.071 485.928 289.337 492.328C277.871 501.928 276.671 502.328 274.137 498.595C273.071 496.861 269.737 494.328 266.804 492.861C263.871 491.528 261.204 489.528 260.804 488.595C260.404 487.528 266.804 479.928 276.404 470.061L292.804 453.395L293.737 458.595C294.271 461.395 294.671 466.728 294.671 470.328ZM318.804 468.461C318.804 469.661 318.404 470.995 317.871 471.395C316.804 472.461 313.471 465.128 313.471 461.795C313.604 458.995 318.671 465.395 318.804 468.461ZM274.537 467.261C272.004 470.995 266.804 474.595 266.804 472.461C266.804 470.461 272.937 464.328 274.937 464.328C276.004 464.328 275.871 465.261 274.537 467.261ZM244.137 473.928C244.137 475.661 245.071 478.195 246.137 479.528C249.871 484.461 248.537 488.595 240.937 496.195C232.804 504.195 230.537 504.328 228.137 497.128C226.804 493.128 227.071 491.795 229.471 486.995C230.937 484.061 233.604 480.995 235.204 480.195C236.937 479.395 239.071 477.128 240.004 474.861C242.004 470.195 244.137 469.795 244.137 473.928ZM325.204 472.595C326.137 473.528 326.804 475.128 326.804 476.195C326.804 478.328 323.071 482.995 321.204 482.995C320.004 482.995 319.871 478.328 320.937 473.928C321.871 470.595 322.937 470.328 325.204 472.595ZM352.137 490.595C352.137 494.595 349.071 502.995 347.604 502.995C344.804 502.995 332.804 496.728 328.537 493.128C323.204 488.728 323.071 486.328 327.471 481.661L330.804 478.195L341.471 483.395C348.004 486.595 352.137 489.395 352.137 490.595ZM228.137 482.861C228.137 483.661 227.604 484.595 226.804 484.995C226.137 485.395 225.471 484.861 225.471 483.795C225.471 482.595 226.137 481.661 226.804 481.661C227.604 481.661 228.137 482.195 228.137 482.861ZM318.804 484.595C318.671 486.861 313.604 493.528 313.471 491.395C313.471 488.995 316.404 482.995 317.737 482.995C318.271 482.995 318.804 483.795 318.804 484.595ZM419.471 490.461C415.737 492.995 411.071 496.061 408.937 497.261C403.071 500.328 390.804 504.328 390.804 503.128C390.804 501.795 397.071 493.395 399.071 492.061C400.004 491.528 402.271 490.995 404.137 490.861C406.004 490.861 410.537 489.661 414.137 488.328C425.204 484.461 426.937 485.128 419.471 490.461ZM306.804 494.995C306.804 496.328 305.871 495.928 304.137 493.661C302.671 491.795 301.471 489.395 301.471 488.328C301.471 486.995 302.404 487.395 304.137 489.661C305.604 491.528 306.804 493.928 306.804 494.995ZM300.404 493.395C301.737 495.395 303.471 497.928 304.271 499.128C305.604 500.995 305.071 502.461 300.671 508.061C297.871 511.661 291.871 519.928 287.471 526.328C275.204 544.061 276.537 542.861 273.337 538.995C270.271 535.395 270.271 535.128 274.004 514.328C275.337 507.395 276.671 503.261 278.137 502.328C279.337 501.528 284.137 498.461 288.537 495.528C293.071 492.461 297.071 489.928 297.471 489.795C297.871 489.795 299.204 491.261 300.404 493.395ZM379.737 492.861C386.537 492.861 392.137 493.128 392.137 493.395C392.137 494.328 384.937 503.661 383.071 505.261C381.071 506.861 360.271 506.728 354.804 504.995C351.871 504.061 352.004 502.861 355.471 494.061C357.204 489.928 357.337 489.795 362.271 491.261C365.071 491.928 372.937 492.728 379.737 492.861ZM323.871 493.261C324.137 494.328 323.204 494.995 321.604 494.995C318.804 494.995 316.937 493.261 318.404 491.795C319.737 490.461 323.204 491.395 323.871 493.261ZM271.337 501.261C272.271 503.528 264.404 508.461 260.804 508.061C257.471 507.528 255.071 498.595 257.471 495.661C258.804 494.061 259.871 494.195 264.804 496.595C268.137 498.195 271.071 500.328 271.337 501.261ZM248.137 500.328C246.537 503.395 244.804 505.395 244.004 504.861C243.204 504.461 241.471 505.128 240.004 506.461C238.671 507.661 237.071 508.328 236.404 507.795C235.471 506.728 247.737 494.995 249.737 494.995C250.404 494.995 249.604 497.395 248.137 500.328ZM227.737 501.261L229.737 506.195L225.337 509.928C222.804 511.928 219.737 514.595 218.537 515.661C214.804 518.861 213.337 518.195 214.937 513.928C217.204 507.661 223.471 496.328 224.537 496.328C225.071 496.328 226.537 498.595 227.737 501.261ZM334.004 500.461C338.804 502.728 342.804 504.995 342.804 505.661C342.804 507.528 332.271 510.995 326.671 510.995C323.737 510.995 320.137 510.328 318.671 509.661C313.604 506.861 316.937 496.328 322.804 496.328C324.137 496.328 329.204 498.195 334.004 500.461ZM313.471 501.795C313.471 503.261 312.937 504.195 312.137 503.661C311.471 503.261 311.204 502.061 311.737 500.995C312.671 498.195 313.471 498.461 313.471 501.795ZM309.471 506.995C311.204 510.195 309.604 519.261 304.671 535.261C299.471 551.795 293.604 556.595 284.271 551.795C276.937 547.928 276.804 546.728 283.737 536.861C291.071 526.461 307.337 504.328 307.737 504.328C307.871 504.328 308.671 505.528 309.471 506.995ZM270.804 517.795C269.871 522.195 268.671 526.061 268.137 526.328C267.071 526.995 262.804 516.861 262.804 513.928C262.804 511.661 271.337 506.595 272.004 508.461C272.271 509.261 271.737 513.528 270.804 517.795ZM367.204 509.128C373.604 509.528 378.804 510.195 378.804 510.595C378.804 512.861 353.204 540.861 349.071 543.128C345.204 545.261 344.137 539.661 346.137 528.195C348.804 512.861 350.937 506.861 353.337 507.528C354.537 507.928 360.671 508.595 367.204 509.128ZM239.471 510.995C239.871 511.661 239.604 512.328 238.937 512.328C238.137 512.328 237.471 511.661 237.471 510.995C237.471 510.195 237.737 509.661 238.004 509.661C238.404 509.661 239.071 510.195 239.471 510.995ZM270.271 542.595C268.937 543.928 267.737 541.928 268.937 540.195C269.737 538.728 270.004 538.728 270.537 540.195C270.804 541.128 270.671 542.195 270.271 542.595ZM270.804 548.328C270.804 548.861 269.871 550.061 268.804 550.995C267.071 552.461 266.804 552.061 266.804 549.261C266.804 546.728 267.337 545.928 268.804 546.461C269.871 546.995 270.804 547.795 270.804 548.328Z" fill="#243727"/>
<path d="M805.47 169.661C803.07 171.261 805.204 171.261 808.804 169.661C810.537 168.861 810.804 168.461 809.47 168.461C808.404 168.461 806.537 168.995 805.47 169.661Z" fill="black"/>
<path d="M710.803 267.128C702.136 268.595 678.536 275.128 679.336 275.928C679.603 276.195 684.003 275.528 688.936 274.195C703.603 270.728 728.003 270.062 737.47 272.995C741.736 274.328 746.27 274.995 747.47 274.462C750.536 273.395 749.47 269.395 745.47 267.395C741.603 265.395 722.003 265.395 710.803 267.128Z" fill="black"/>
<path d="M170.139 309.661C169.739 310.461 170.272 310.595 171.339 310.195C173.739 309.261 174.139 308.328 172.272 308.328C171.472 308.328 170.539 308.861 170.139 309.661Z" fill="black"/>
<path d="M175.071 335.394C174.137 339.26 173.071 343.794 172.537 345.527C172.004 347.66 172.271 348.46 173.071 347.927C174.537 346.994 178.271 330.06 177.204 328.994C176.937 328.727 176.004 331.527 175.071 335.394Z" fill="black"/>
<path d="M171.738 350.595C170.671 352.461 169.205 360.328 170.005 360.328C170.805 360.328 173.605 350.728 172.938 349.928C172.671 349.661 172.138 349.928 171.738 350.595Z" fill="black"/>
<path d="M463.613 801.521L462.718 799.116L462.278 797.908L461.921 796.672C461.69 795.847 461.43 795.027 461.223 794.195L460.691 791.674C460.11 788.287 459.902 784.815 460.263 781.369C460.603 777.922 461.607 774.537 463.137 771.422C464.668 768.302 466.735 765.466 469.123 762.96C473.971 757.988 479.934 754.3 486.154 751.421C489.276 749.988 492.474 748.736 495.709 747.607C498.954 746.504 502.228 745.507 505.517 744.562C499.066 746.838 492.602 749.107 486.485 752.115C480.39 755.11 474.519 758.745 469.844 763.651C467.494 766.073 465.463 768.812 463.951 771.826C462.425 774.835 461.473 778.113 461.023 781.46C460.579 784.813 460.697 788.23 461.172 791.594C461.602 794.978 462.596 798.256 463.613 801.52V801.521Z" fill="url(#paint2_linear_280_15)"/>
<defs>
<linearGradient id="paint0_linear_280_15" x1="477.668" y1="552.972" x2="477.668" y2="833.227" gradientUnits="userSpaceOnUse">
<stop stop-color="#9F8239"/>
<stop offset="1" stop-color="#D1C08C"/>
</linearGradient>
<linearGradient id="paint1_linear_280_15" x1="627.069" y1="564.004" x2="627.069" y2="816.004" gradientUnits="userSpaceOnUse">
<stop stop-color="#9F8239"/>
<stop offset="1" stop-color="#D1C08C"/>
</linearGradient>
<linearGradient id="paint2_linear_280_15" x1="472.993" y1="804.443" x2="488.226" y2="739.784" gradientUnits="userSpaceOnUse">
<stop stop-color="#9F8239"/>
<stop offset="1" stop-color="#D1C08C"/>
</linearGradient>
</defs>
</svg>
