<svg width="986" height="1039" viewBox="0 0 986 1039" fill="none" xmlns="http://www.w3.org/2000/svg">
<path d="M522.5 655C698.403 655 841 512.403 841 336.5C841 160.597 698.403 18 522.5 18C346.597 18 204 160.597 204 336.5C204 512.403 346.597 655 522.5 655Z" fill="#F4F1E2"/>
<path d="M552.343 558.431C540.744 561.178 529.255 564.526 518.054 568.573C512.458 570.605 506.933 572.823 501.57 575.333C496.22 577.851 490.984 580.638 486.265 584.014C483.909 585.696 481.697 587.55 479.831 589.614C477.966 591.667 476.494 593.999 475.959 596.413C475.411 598.821 475.942 601.279 477.324 603.508C478.712 605.734 480.746 607.709 483.018 609.422C487.574 612.866 492.947 615.454 498.364 617.882C503.79 620.298 509.362 622.43 515.002 624.393C526.282 628.327 537.82 631.606 549.397 634.785C560.972 637.986 572.631 640.956 584.149 644.69C587.025 645.638 589.891 646.641 592.724 647.782C595.554 648.93 598.363 650.195 601.049 651.851C602.383 652.693 603.705 653.612 604.875 654.841C606.028 656.036 607.121 657.611 607.366 659.56C607.626 661.514 606.883 663.373 605.941 664.764C605.001 666.215 603.801 667.296 602.61 668.35C600.166 670.36 597.537 671.98 594.851 673.436C592.159 674.877 589.429 676.223 586.653 677.434C581.114 679.895 575.474 682.056 569.798 684.093C558.441 688.174 546.922 691.646 535.485 695.319C524.032 698.964 512.589 702.633 501.176 706.389C478.362 713.923 455.624 721.736 433.423 730.898C422.334 735.495 411.381 740.442 400.796 746.096C390.235 751.764 379.966 758.107 370.859 765.92C368.606 767.892 366.389 769.915 364.336 772.097C362.263 774.258 360.297 776.526 358.522 778.937C354.918 783.715 352.041 789.062 350.222 794.772C349.337 797.633 348.72 800.576 348.381 803.554C348.036 806.534 348.054 809.546 348.271 812.536C348.724 818.529 350.298 824.39 352.435 830C350.25 824.409 348.621 818.556 348.115 812.549C347.872 809.552 347.827 806.528 348.148 803.53C348.463 800.534 349.058 797.568 349.924 794.68C351.705 788.917 354.558 783.502 358.146 778.659C359.913 776.214 361.872 773.914 363.94 771.721C365.988 769.506 368.199 767.453 370.449 765.449C379.542 757.512 389.801 751.053 400.35 745.272C410.924 739.505 421.865 734.45 432.94 729.746C455.112 720.37 477.815 712.349 500.582 704.611C511.972 700.753 523.389 696.983 534.813 693.238C546.231 689.462 557.709 685.892 568.944 681.744C574.563 679.672 580.137 677.48 585.562 675.013C588.285 673.798 590.938 672.459 593.531 671.042C596.114 669.616 598.608 668.034 600.792 666.205C601.836 665.267 602.88 664.292 603.56 663.196C604.271 662.115 604.655 660.982 604.5 659.93C604.367 658.872 603.697 657.819 602.773 656.883C601.864 655.933 600.695 655.121 599.486 654.376C597.041 652.895 594.341 651.697 591.596 650.613C588.844 649.533 586.026 648.573 583.187 647.664C571.8 644.08 560.122 641.208 548.502 638.104C536.874 635.018 525.24 631.823 513.782 627.939C508.053 626 502.37 623.884 496.792 621.459C493.997 620.25 491.247 618.972 488.515 617.557C485.781 616.135 483.1 614.554 480.567 612.663C478.042 610.78 475.633 608.557 473.802 605.687C472.895 604.254 472.189 602.616 471.821 600.867C471.45 599.119 471.464 597.268 471.832 595.538C472.585 592.051 474.498 589.158 476.621 586.759C478.767 584.345 481.184 582.305 483.697 580.473C488.733 576.809 494.137 573.886 499.63 571.24C505.132 568.607 510.755 566.295 516.437 564.175C527.811 559.955 539.412 556.466 551.179 553.57L553.607 552.973L554.777 557.857L552.344 558.433L552.343 558.431Z" fill="url(#paint0_linear_280_15)"/>
<path d="M548.842 564.028C568.72 566.787 588.444 570.52 608.015 574.952C627.563 579.458 647.011 584.636 665.861 591.8C670.566 593.606 675.226 595.555 679.798 597.731C684.368 599.907 688.859 602.305 693.12 605.154C695.257 606.563 697.324 608.111 699.275 609.83C701.231 611.536 703.078 613.43 704.617 615.634C706.155 617.819 707.406 620.342 707.902 623.117C708.419 625.883 708.069 628.816 707.045 631.369C706.032 633.941 704.467 636.158 702.743 638.136C701.029 640.145 699.047 641.82 697.05 643.441C692.983 646.589 688.604 649.194 684.129 651.55C683 652.121 681.889 652.716 680.745 653.268L677.299 654.903L670.341 657.753C665.738 659.666 661.164 661.652 656.62 663.706C638.467 671.954 620.735 681.22 603.985 692.04C595.615 697.449 587.506 703.275 579.909 709.709C572.339 716.149 565.204 723.201 559.489 731.32C556.659 735.382 554.161 739.704 552.435 744.336C552.044 745.505 551.581 746.655 551.295 747.856C551.137 748.452 550.963 749.044 550.818 749.643L550.467 751.457L550.295 752.365L550.191 753.283L549.985 755.119L549.93 756.965L549.903 757.888L549.955 758.81L550.058 760.654L550.322 762.482L550.454 763.397L550.664 764.297L551.089 766.097C551.815 768.451 552.668 770.782 553.866 772.949C556.173 777.33 559.304 781.257 562.844 784.743C569.977 791.703 578.505 797.117 587.349 801.719C596.229 806.3 605.486 810.134 614.9 813.503C605.451 810.237 596.148 806.503 587.2 802.01C578.288 797.493 569.67 792.162 562.387 785.211C558.774 781.727 555.55 777.781 553.145 773.333C551.899 771.132 550.996 768.754 550.225 766.343L549.767 764.498L549.542 763.574L549.395 762.634L549.103 760.754L548.976 758.855L548.913 757.905L548.93 756.954L548.967 755.051L549.158 753.158L549.255 752.211L549.421 751.275L549.763 749.404C549.905 748.787 550.077 748.177 550.233 747.563C550.515 746.325 550.974 745.143 551.363 743.939C553.081 739.172 555.582 734.736 558.416 730.574C564.139 722.255 571.278 715.05 578.847 708.466C586.443 701.889 594.548 695.933 602.912 690.396C619.652 679.323 637.37 669.818 655.531 661.326C660.077 659.211 664.654 657.164 669.264 655.189L676.155 652.279L679.467 650.661C680.569 650.115 681.657 649.517 682.752 648.948C687.095 646.602 691.312 644.022 695.125 641.002C696.986 639.456 698.825 637.865 700.338 636.044C701.871 634.249 703.196 632.296 703.996 630.192C704.804 628.094 705.029 625.866 704.608 623.716C704.198 621.561 703.175 619.5 701.823 617.623C700.478 615.735 698.795 614.033 696.968 612.478C695.151 610.912 693.191 609.473 691.14 608.154C687.057 605.486 682.679 603.204 678.2 601.132C673.719 599.059 669.126 597.196 664.477 595.469C645.843 588.617 626.48 583.679 607.022 579.419C587.542 575.19 567.865 571.856 548.144 568.975H548.139C546.773 568.775 545.827 567.505 546.027 566.139C546.226 564.779 547.485 563.836 548.845 564.024L548.842 564.028Z" fill="url(#paint1_linear_280_15)"/>
<path d="M729.471 55.1277C729.471 55.5277 732.404 62.1947 736.004 69.7947C743.604 85.9277 750.537 105.128 755.337 122.995C760.537 142.461 764.671 182.461 761.737 186.328C761.204 186.995 757.204 189.395 752.804 191.395C740.804 197.128 714.671 212.861 698.271 224.061C656.804 252.595 613.204 293.128 572.937 340.328C543.071 375.128 491.737 428.595 470.804 446.195C458.937 456.195 446.937 464.995 446.137 464.061C445.871 463.795 446.537 460.861 447.737 457.395C451.871 444.595 445.204 439.128 434.537 446.461C428.004 450.995 413.737 466.195 404.804 478.061C401.071 483.128 396.671 487.395 394.804 487.928C389.737 489.528 360.537 489.128 358.937 487.661C358.004 486.728 358.537 482.861 360.404 475.661C361.871 469.795 363.204 460.461 363.337 454.995L363.471 444.995L359.604 444.595C356.404 444.195 354.271 445.661 345.737 454.328C340.137 459.795 334.804 464.061 333.871 463.795C332.937 463.395 332.537 463.928 332.937 464.995C333.871 467.395 331.204 472.328 328.937 472.328C328.004 472.328 326.271 471.261 325.071 469.928C323.337 467.928 323.204 466.861 324.804 460.995C325.737 457.261 327.071 454.461 327.737 454.595C329.071 454.861 326.271 432.728 324.804 431.261C324.404 430.861 320.804 432.195 316.671 434.195C312.671 436.328 308.937 437.528 308.404 436.995C307.871 436.461 307.471 426.328 307.604 414.595C307.737 396.061 308.271 390.061 311.871 372.995C316.404 350.595 317.604 342.995 316.671 342.995C314.137 342.995 305.737 371.661 302.804 390.195C301.604 397.395 300.671 400.061 299.737 399.128C296.937 396.328 292.404 397.661 286.404 403.128L280.137 408.461L278.671 405.128C277.471 402.728 277.471 399.395 278.671 392.061C279.471 386.728 281.071 376.461 282.137 369.261C283.604 359.795 283.737 355.661 282.671 353.928C281.604 352.195 282.671 347.395 287.337 332.728C293.604 313.128 296.404 300.195 294.804 297.661C293.337 295.261 287.604 302.061 272.004 325.528C260.537 342.595 256.404 347.795 253.604 348.461C251.737 348.995 249.071 349.795 247.604 350.328C245.471 351.261 245.337 351.128 246.671 348.595C249.337 343.661 248.271 342.728 243.737 346.195C241.204 348.195 238.671 349.661 238.137 349.661C237.471 349.661 235.604 350.995 233.871 352.595C232.137 354.195 230.804 354.861 230.804 354.061C230.804 353.261 231.737 351.928 232.937 350.861C234.004 349.928 235.871 347.528 236.937 345.395C238.004 343.395 239.471 341.795 240.404 342.061C242.271 342.461 251.871 324.861 250.404 323.528C249.204 322.195 237.337 326.328 230.004 330.461C227.071 332.195 224.271 333.261 223.737 332.861C223.337 332.461 223.337 327.528 223.737 321.928L224.404 311.661L238.271 297.661C252.004 283.795 254.271 280.328 249.871 280.328C247.604 280.328 234.137 284.195 229.204 286.328C225.871 287.661 226.004 284.328 230.137 263.528C232.004 254.195 233.337 245.928 233.071 245.261C232.404 243.261 227.337 260.328 224.137 274.861C222.537 281.795 221.071 287.928 220.804 288.461C219.871 289.795 194.937 299.528 194.271 298.861C193.204 297.795 197.471 270.595 200.271 260.328C201.871 254.861 205.337 245.395 208.137 239.261C210.937 233.261 212.937 228.328 212.404 228.461C210.937 228.595 192.004 257.661 193.337 257.661C194.137 257.661 196.271 255.395 198.271 252.595C200.137 249.928 201.337 248.861 200.937 250.195C200.404 251.661 199.471 255.528 198.804 258.861C198.004 262.195 196.537 268.595 195.471 272.995C194.404 277.395 192.937 285.395 192.004 290.728C190.937 297.661 189.871 300.728 188.137 301.661C184.804 303.528 184.004 301.795 185.604 295.528C187.337 288.061 190.404 260.061 189.337 261.261C188.804 261.928 185.737 265.661 182.537 269.661C165.071 291.395 159.604 297.795 151.337 306.461C142.404 315.661 129.737 324.328 125.204 324.328C124.004 324.328 122.671 324.861 122.137 325.528C121.737 326.195 125.471 325.661 130.404 324.195C135.337 322.861 139.871 321.661 140.404 321.661C140.937 321.661 141.071 320.861 140.671 319.795C140.271 318.861 141.337 317.128 143.071 316.061C147.337 313.128 159.604 300.861 163.871 295.128C165.871 292.595 168.404 289.395 169.471 288.328C170.537 287.128 174.671 282.061 178.671 277.261C182.671 272.328 186.137 268.595 186.271 268.728C187.071 269.395 184.137 294.061 182.804 299.261C181.871 302.461 180.137 304.995 177.737 306.195C175.426 307.528 175.249 308.239 177.204 308.328C179.871 308.328 180.271 308.861 179.604 311.928C179.204 314.061 178.671 318.328 178.271 321.661C177.604 327.128 177.604 327.261 178.937 323.661C179.737 321.395 181.071 316.461 181.871 312.461C183.204 306.061 184.004 304.995 187.337 304.195L191.071 303.128L190.404 329.795C189.737 353.661 189.471 356.728 187.204 358.328C185.871 359.395 183.871 360.328 182.671 360.328C181.604 360.328 177.737 363.128 174.271 366.595L167.871 372.995L168.671 366.995L169.337 360.995L167.071 367.928C164.537 375.661 163.337 377.261 154.671 384.728C145.471 392.728 124.137 413.795 120.537 418.595C118.671 420.995 117.604 423.528 118.137 424.328C120.137 427.661 131.471 423.661 154.137 411.395C162.404 406.995 164.671 406.461 173.471 406.195C179.471 406.061 185.471 405.128 188.404 403.795L193.471 401.661V406.195C193.471 409.395 190.937 414.861 184.804 425.128C179.471 433.795 176.537 439.928 177.337 440.728C179.071 442.461 182.537 440.195 190.004 432.328C193.471 428.595 197.071 425.795 197.871 426.061C198.671 426.328 200.271 429.928 201.204 434.061L203.071 441.661L197.337 451.261C184.004 473.128 182.004 477.395 183.604 478.995C184.537 479.928 188.404 477.128 195.604 470.328C201.337 464.861 206.404 460.328 206.804 460.328C207.204 460.328 209.204 463.261 211.204 466.995C213.204 470.595 217.071 475.261 219.737 477.261C224.004 480.461 224.404 481.395 223.737 485.795C223.337 488.595 220.004 496.995 216.271 504.728C212.537 512.328 209.471 519.661 209.471 520.861C209.471 524.728 214.271 523.128 223.337 516.061C229.293 511.527 232.938 510.194 234.271 512.061C235.337 513.661 237.471 514.995 238.804 514.995C241.071 514.995 250.804 505.128 250.804 502.728C250.804 497.261 258.937 512.461 264.137 527.795C266.404 534.328 266.537 536.461 265.204 545.261C263.471 557.661 264.937 560.195 270.404 553.928C274.804 548.861 275.737 548.728 282.137 552.595C290.937 557.661 299.071 555.528 303.604 546.595C306.004 542.061 310.004 529.128 312.271 518.595C313.737 511.528 314.271 510.861 316.671 511.795C318.271 512.328 322.537 512.995 326.137 513.261C331.471 513.661 334.137 513.128 339.204 510.461C342.671 508.595 346.137 506.995 346.671 506.995C347.337 506.995 346.671 510.728 345.204 515.261C342.271 524.728 340.671 538.461 342.004 543.395C342.937 547.395 345.737 548.728 349.871 547.128C353.604 545.661 366.804 532.195 377.871 518.328C385.737 508.461 386.937 507.528 393.337 506.061C404.671 503.395 419.337 495.528 428.004 487.528C432.404 483.395 441.071 477.128 447.071 473.395C463.471 463.395 478.937 450.995 496.137 433.661C512.404 417.528 518.404 410.728 546.137 378.328C555.471 367.261 565.604 355.661 568.671 352.328C571.737 348.995 575.871 344.195 578.004 341.661C596.804 318.595 642.937 271.928 664.671 253.928C688.004 234.461 711.871 217.261 732.004 205.395C747.737 196.061 759.204 189.661 760.671 189.661C760.937 189.661 761.071 203.261 760.937 219.928C760.804 247.661 761.071 251.261 763.871 261.661C768.937 280.595 777.871 298.328 796.404 326.061C808.004 343.395 810.004 347.395 808.804 351.128C807.737 354.461 800.271 358.061 788.804 360.995C765.071 366.861 760.271 375.395 770.137 394.195C772.804 398.995 774.671 403.528 774.271 404.195C773.871 404.861 771.737 405.661 769.471 406.195C762.937 407.395 722.671 427.395 724.404 428.461C725.337 428.995 729.071 429.795 732.804 430.328C763.871 434.195 770.537 439.128 758.537 449.528C742.404 463.395 741.604 465.261 744.004 488.328C745.871 506.728 744.671 512.061 737.604 519.128C727.737 528.861 709.871 528.861 682.004 518.995C637.204 502.995 624.804 500.328 609.071 502.861C603.871 503.795 595.737 506.328 590.937 508.595C573.471 516.861 554.537 540.995 546.004 565.928L542.804 575.395L545.871 572.861C551.204 568.328 553.337 565.395 558.404 556.461C568.671 537.795 582.404 523.395 596.137 516.595C602.937 513.261 604.671 512.995 620.137 512.995L636.804 513.128L659.471 520.728C697.871 533.795 711.337 536.461 725.071 533.661C740.937 530.328 749.604 522.728 752.271 509.795C753.471 503.795 753.337 499.395 751.604 487.261C749.071 469.128 750.137 464.861 759.337 457.661C766.937 451.528 770.804 445.795 770.804 440.595C770.804 435.528 767.337 432.861 758.804 431.528C749.204 430.061 748.004 428.728 755.471 427.661C764.271 426.595 767.604 424.861 774.404 418.061C782.404 410.195 783.071 404.995 777.604 394.461C772.137 383.661 772.004 377.528 777.471 373.661C779.604 372.195 785.604 369.928 790.804 368.861C809.471 364.995 817.471 359.395 817.471 350.195C817.471 343.661 815.071 338.728 802.671 319.395C789.071 298.195 778.537 277.928 773.871 263.795C770.404 253.395 770.271 251.928 769.871 220.595C769.737 202.728 769.871 187.395 770.271 186.461C770.937 184.728 780.271 180.328 796.804 173.795C800.537 172.328 802.671 171.128 801.737 171.128C800.804 170.995 793.471 173.661 785.471 176.861C777.471 180.061 770.671 182.328 770.404 181.928C770.137 181.395 769.737 175.928 769.604 169.661C768.804 141.928 760.271 111.128 745.337 81.6607C739.337 69.6607 729.604 53.3947 729.471 55.1277ZM244.537 287.261C238.937 293.661 225.604 306.195 224.937 305.528C224.671 305.261 224.804 301.395 225.204 296.995L226.137 289.128L235.471 286.061C248.137 282.061 249.071 282.195 244.537 287.261ZM220.137 302.595L219.471 312.995L207.071 324.995C200.271 331.528 194.137 337.128 193.337 337.395C191.871 337.928 191.737 328.328 193.071 312.461C193.737 303.928 194.404 301.128 196.004 300.728C197.204 300.461 202.404 298.461 207.471 296.328C221.204 290.728 220.937 290.461 220.137 302.595ZM293.471 303.128C293.471 305.928 287.871 326.461 284.804 334.995C283.071 339.795 280.937 345.795 280.137 348.328C276.404 358.861 274.137 363.128 263.337 379.128C255.604 390.595 250.004 397.261 245.604 400.595C239.737 404.995 239.071 405.261 238.404 402.995C237.071 397.928 239.604 384.861 242.804 379.661C244.671 376.728 249.071 370.728 252.804 366.328C256.537 361.928 261.204 356.195 263.204 353.528C267.204 348.328 273.471 344.861 276.404 346.328C277.337 346.728 276.937 346.195 275.604 345.128C274.137 343.928 272.404 342.995 271.737 342.995C269.471 342.995 262.804 347.528 262.804 349.128C262.804 350.061 260.004 353.661 256.671 357.261L250.671 363.661L255.071 357.261C257.471 353.661 261.604 346.861 264.137 342.195C270.271 331.261 290.671 301.661 292.271 301.661C292.937 301.661 293.471 302.328 293.471 303.128ZM220.137 327.528V337.261L211.204 343.261C196.271 353.261 193.471 354.195 193.471 349.661C193.471 344.595 198.537 336.995 208.137 327.261C213.471 321.928 218.271 317.661 218.937 317.661C219.603 317.661 220.137 322.061 220.137 327.528ZM240.671 331.928C232.137 345.261 226.137 353.661 225.204 353.661C224.671 353.661 224.137 349.795 224.137 345.128V336.728L231.871 332.595C241.604 327.261 243.871 327.128 240.671 331.928ZM220.137 352.195V362.728L213.871 367.928C210.271 370.728 204.671 374.995 201.071 377.395C195.737 381.128 194.671 381.528 194.004 379.661C192.404 375.661 194.537 365.661 198.004 360.328C202.004 354.195 202.671 351.395 198.804 356.328C197.471 358.195 195.871 359.128 195.337 358.595C194.004 357.395 199.737 351.928 201.337 352.861C202.004 353.261 206.004 350.995 210.271 347.661C214.404 344.328 218.404 341.661 219.071 341.661C219.604 341.661 220.137 346.461 220.137 352.195ZM254.804 351.661C254.804 352.595 245.071 366.595 241.471 370.995L238.671 374.328L239.471 370.995C240.004 369.128 240.937 367.128 241.604 366.328C242.271 365.661 242.804 364.061 242.804 362.728C242.804 359.795 250.404 350.995 252.937 350.995C254.004 350.995 254.804 351.261 254.804 351.661ZM240.137 354.728C240.137 355.261 238.137 356.861 235.871 358.195L231.471 360.461L235.471 357.128C239.871 353.261 240.137 353.128 240.137 354.728ZM240.137 359.261C240.137 361.661 234.404 373.795 231.604 377.261C227.204 382.595 225.471 381.928 225.471 374.995C225.471 370.595 226.271 369.128 231.604 364.461C236.937 359.795 240.137 357.928 240.137 359.261ZM188.137 370.995C186.671 375.795 184.804 382.195 184.137 385.395C183.204 389.128 181.471 391.661 179.071 393.261C177.071 394.461 173.204 396.861 170.404 398.728C165.204 402.195 163.604 401.795 162.404 396.995C162.004 395.395 161.737 396.328 161.604 399.128C161.604 401.795 160.671 404.595 159.871 405.395C153.604 410.328 123.337 424.061 121.871 422.461C120.537 421.128 127.337 413.395 143.871 397.661L160.804 381.528L161.471 387.261L162.137 392.995L163.871 385.261C165.604 377.661 166.004 377.261 177.204 368.995C183.604 364.195 189.204 360.861 189.737 361.395C190.271 361.928 189.604 366.328 188.137 370.995ZM278.137 378.595C275.471 399.661 275.337 399.928 271.737 400.728C270.137 401.128 265.871 402.328 262.137 403.395C246.804 407.661 246.671 409.395 263.737 383.661C272.271 370.861 279.471 360.595 279.871 360.861C280.137 361.261 279.471 369.128 278.137 378.595ZM230.137 362.995C229.737 363.661 228.671 364.328 228.004 364.328C227.204 364.328 227.071 363.661 227.471 362.995C227.871 362.195 228.937 361.661 229.604 361.661C230.404 361.661 230.537 362.195 230.137 362.995ZM212.137 374.861C212.137 375.528 209.604 377.928 206.537 380.195C203.337 382.461 200.004 384.995 198.937 385.795C197.471 387.128 197.204 387.128 197.604 385.795C198.004 384.595 210.404 374.061 211.871 373.795C212.004 373.661 212.137 374.195 212.137 374.861ZM222.804 378.995C225.071 385.795 223.871 388.461 212.137 402.728C201.471 415.795 199.204 417.528 198.137 413.261C197.337 410.328 198.537 406.461 201.871 400.995C202.804 399.528 205.204 395.261 207.337 391.661C212.004 383.795 219.204 373.795 220.271 373.661C220.671 373.661 221.871 376.061 222.804 378.995ZM189.604 384.728C187.871 386.461 187.604 383.261 189.071 379.395C190.004 377.261 190.137 377.395 190.537 380.195C190.804 381.928 190.404 383.928 189.604 384.728ZM234.004 382.461C233.604 384.595 232.137 387.928 230.671 389.661C228.271 392.995 228.137 392.995 228.137 390.061C228.137 387.127 233.337 377.128 234.271 378.061C234.537 378.328 234.404 380.328 234.004 382.461ZM209.471 382.461C209.471 382.861 207.337 385.261 204.804 387.795C202.137 390.328 200.404 392.328 200.804 392.328C201.337 392.328 201.204 392.995 200.671 393.928C200.004 394.995 199.337 394.728 198.671 392.861C197.737 390.595 197.604 390.595 197.604 392.595C197.471 395.928 194.804 395.528 194.804 392.328C194.804 390.595 196.137 389.128 198.271 388.328C200.271 387.528 203.337 385.795 205.204 384.328C208.671 381.528 209.471 381.128 209.471 382.461ZM191.071 399.261C189.737 400.595 186.404 402.061 183.471 402.595L178.404 403.395L181.604 398.995C185.737 393.528 189.604 391.795 191.871 394.728C193.204 396.461 193.071 397.261 191.071 399.261ZM225.471 395.661C225.471 398.061 205.337 438.061 204.671 437.261C204.271 436.995 203.204 433.261 202.137 429.128L200.137 421.528L210.537 409.261C216.137 402.595 221.471 396.328 222.137 395.395C224.004 393.128 225.471 393.261 225.471 395.661ZM234.804 408.195C234.804 420.195 232.937 425.661 231.604 417.395C230.137 407.661 229.871 400.595 231.071 398.461C233.604 393.795 234.804 396.728 234.804 408.195ZM198.804 400.328C198.804 400.995 198.137 401.661 197.337 401.661C196.671 401.661 196.404 400.995 196.804 400.328C197.204 399.528 197.871 398.995 198.271 398.995C198.537 398.995 198.804 399.528 198.804 400.328ZM296.537 403.261C297.337 405.928 295.204 434.995 294.271 435.928C294.004 436.328 292.004 434.595 289.871 432.328C287.471 429.795 284.404 427.928 282.404 427.928C279.071 427.661 278.804 427.128 278.804 422.061C278.804 417.795 279.737 415.395 283.471 410.995C288.271 405.261 293.471 400.461 294.937 400.328C295.471 400.328 296.137 401.661 296.537 403.261ZM275.071 407.395C277.071 410.328 277.071 410.728 274.671 413.795L272.271 416.995L273.071 411.795C273.604 408.061 273.471 406.861 272.404 407.528C271.471 408.061 270.804 410.728 270.804 413.395C270.804 416.995 268.937 421.128 262.804 430.328C255.337 441.528 252.004 444.995 246.937 445.928C245.737 446.195 244.271 443.395 242.671 437.661C240.404 429.928 240.404 428.861 242.137 426.061C244.804 421.928 261.204 408.595 266.137 406.328C271.604 403.928 272.537 403.928 275.071 407.395ZM241.471 408.995C240.537 410.195 239.471 410.728 239.204 410.461C238.271 409.528 240.137 406.995 241.737 406.995C242.537 406.995 242.537 407.795 241.471 408.995ZM257.337 407.928C257.337 408.595 253.604 412.061 249.071 415.928C241.737 422.061 240.804 422.461 240.404 420.061C239.737 416.595 245.604 410.461 251.204 408.595C256.671 406.861 257.471 406.728 257.337 407.928ZM227.737 418.728L228.137 427.795L220.271 438.328C210.671 450.995 208.537 452.461 207.337 447.528C205.871 442.061 212.537 429.528 219.737 424.061C224.004 420.995 225.071 419.528 223.471 419.261C222.271 418.995 220.537 419.528 219.471 420.328C218.271 421.261 217.471 421.395 217.471 420.595C217.471 419.928 218.404 418.595 219.604 417.528C220.671 416.595 222.537 414.061 223.604 411.928C224.804 409.795 226.004 408.461 226.404 408.861C226.804 409.261 227.471 413.661 227.737 418.728ZM768.004 415.795C765.471 418.461 762.271 421.261 760.804 422.061C758.404 423.395 736.137 427.128 736.137 426.195C736.137 424.728 771.071 409.528 772.004 410.461C772.404 410.728 770.537 413.128 768.004 415.795ZM304.671 441.928C304.271 442.461 302.804 442.995 301.337 442.995C298.271 442.995 298.137 439.661 300.271 425.261C302.404 410.328 303.204 410.461 304.271 426.328C304.804 434.328 304.937 441.395 304.671 441.928ZM196.137 418.861C196.137 420.061 193.337 423.795 189.871 426.995L183.737 432.995L187.071 426.995C188.937 423.661 191.204 419.661 192.004 417.928C193.737 414.595 196.137 415.128 196.137 418.861ZM276.137 423.128C276.137 425.528 266.937 436.328 264.804 436.328C263.604 436.328 266.804 430.861 271.071 425.261C275.604 419.528 276.137 419.395 276.137 423.128ZM240.004 439.661C240.937 443.795 241.337 447.528 240.937 447.928C239.737 449.128 236.137 439.528 236.137 434.995C236.137 428.728 238.137 431.261 240.004 439.661ZM286.804 432.995C291.604 435.528 294.804 439.928 294.804 444.328C294.804 448.861 282.804 459.128 275.204 461.128C271.071 462.195 269.471 462.195 269.471 461.128C269.471 458.195 276.404 434.328 277.737 432.595C279.604 430.461 282.137 430.595 286.804 432.995ZM325.071 443.261C325.737 450.595 322.671 464.328 320.137 464.328C319.604 464.328 318.404 462.595 317.471 460.461C316.671 458.328 314.404 454.595 312.671 452.195C307.337 444.861 308.671 440.861 318.137 435.928C320.404 434.728 322.671 434.328 323.204 434.861C323.871 435.528 324.671 439.261 325.071 443.261ZM269.604 447.928C265.604 461.528 252.804 486.461 251.604 482.861C251.337 481.795 250.004 478.195 248.804 474.728C247.471 471.395 246.804 467.795 247.204 466.728C247.471 465.795 248.537 467.661 249.604 470.861C251.204 476.195 251.471 476.461 252.271 473.528C252.671 471.795 252.537 469.261 251.871 468.061C251.337 466.861 250.804 464.861 250.804 463.528C250.804 459.395 270.937 434.595 271.871 437.528C272.137 438.195 271.071 442.995 269.604 447.928ZM228.137 444.195C228.137 450.328 227.871 450.728 225.204 450.061C222.537 449.528 222.404 449.661 224.271 451.261C225.337 452.195 226.671 453.928 227.071 455.128C227.871 457.395 225.204 474.461 223.737 475.795C221.871 477.661 216.404 472.061 212.937 464.995L209.471 457.528L213.071 452.861C215.204 450.328 217.737 447.928 218.937 447.661C220.137 447.261 222.537 444.861 224.271 442.328C226.004 439.795 227.604 437.661 227.871 437.661C228.004 437.661 228.137 440.595 228.137 444.195ZM234.804 444.195C236.537 448.461 235.737 450.995 232.671 450.995C231.337 450.995 230.804 449.395 230.804 445.661C230.804 439.395 232.537 438.728 234.804 444.195ZM257.204 448.195C256.271 449.795 255.071 450.995 254.404 450.995C253.337 450.995 254.137 449.128 256.537 445.928C258.671 443.261 259.204 445.128 257.204 448.195ZM306.804 447.661C306.804 448.728 306.137 449.661 305.471 449.661C304.671 449.661 305.204 451.928 306.671 454.595C310.937 463.128 315.337 475.528 315.071 478.728C314.937 480.328 313.737 483.928 312.404 486.595L309.871 491.395L306.804 486.995C302.804 481.261 300.137 470.061 300.137 457.928C300.137 450.328 300.537 448.328 302.137 448.328C303.204 448.328 304.137 447.661 304.137 446.995C304.137 446.195 304.804 445.661 305.471 445.661C306.271 445.661 306.804 446.595 306.804 447.661ZM444.671 452.995C444.671 463.661 441.204 468.861 430.937 474.328C420.004 480.195 405.471 486.061 404.537 485.128C402.804 483.395 423.737 459.128 433.471 451.395C442.804 444.061 444.804 444.328 444.671 452.995ZM249.737 451.261C248.271 452.728 245.471 451.661 245.471 449.661C245.471 448.061 250.004 447.261 250.671 448.728C250.937 449.395 250.537 450.461 249.737 451.261ZM204.804 453.128C204.937 456.195 203.471 458.461 197.737 464.061C190.671 470.728 186.004 472.861 191.871 466.595C193.471 464.861 194.804 462.728 194.804 461.795C194.804 458.995 201.737 448.195 203.204 448.728C204.004 448.995 204.671 450.861 204.804 453.128ZM360.404 455.128C360.004 462.328 356.271 480.061 354.537 483.395C353.737 485.128 352.404 485.528 349.737 484.861C345.871 483.928 336.537 479.528 333.871 477.395C331.737 475.661 334.004 470.995 336.804 470.995C337.871 470.995 338.804 469.928 338.804 468.595C338.937 464.728 356.271 447.661 359.204 448.728C360.137 448.995 360.671 451.528 360.404 455.128ZM245.471 455.928C245.471 458.595 243.337 456.995 242.404 453.661C241.871 451.395 242.004 451.128 243.604 452.461C244.671 453.261 245.471 454.861 245.471 455.928ZM239.071 457.528C241.071 462.461 241.071 462.861 237.471 468.595C234.271 473.661 229.871 477.395 228.804 476.061C228.004 474.995 231.071 455.528 232.404 454.061C234.804 450.995 236.937 452.195 239.071 457.528ZM294.671 470.328C294.804 474.061 295.337 478.995 296.004 481.395C297.204 485.528 297.071 485.928 289.337 492.328C277.871 501.928 276.671 502.328 274.137 498.595C273.071 496.861 269.737 494.328 266.804 492.861C263.871 491.528 261.204 489.528 260.804 488.595C260.404 487.528 266.804 479.928 276.404 470.061L292.804 453.395L293.737 458.595C294.271 461.395 294.671 466.728 294.671 470.328ZM318.804 468.461C318.804 469.661 318.404 470.995 317.871 471.395C316.804 472.461 313.471 465.128 313.471 461.795C313.604 458.995 318.671 465.395 318.804 468.461ZM274.537 467.261C272.004 470.995 266.804 474.595 266.804 472.461C266.804 470.461 272.937 464.328 274.937 464.328C276.004 464.328 275.871 465.261 274.537 467.261ZM244.137 473.928C244.137 475.661 245.071 478.195 246.137 479.528C249.871 484.461 248.537 488.595 240.937 496.195C232.804 504.195 230.537 504.328 228.137 497.128C226.804 493.128 227.071 491.795 229.471 486.995C230.937 484.061 233.604 480.995 235.204 480.195C236.937 479.395 239.071 477.128 240.004 474.861C242.004 470.195 244.137 469.795 244.137 473.928ZM325.204 472.595C326.137 473.528 326.804 475.128 326.804 476.195C326.804 478.328 323.071 482.995 321.204 482.995C320.004 482.995 319.871 478.328 320.937 473.928C321.871 470.595 322.937 470.328 325.204 472.595ZM352.137 490.595C352.137 494.595 349.071 502.995 347.604 502.995C344.804 502.995 332.804 496.728 328.537 493.128C323.204 488.728 323.071 486.328 327.471 481.661L330.804 478.195L341.471 483.395C348.004 486.595 352.137 489.395 352.137 490.595ZM228.137 482.861C228.137 483.661 227.604 484.595 226.804 484.995C226.137 485.395 225.471 484.861 225.471 483.795C225.471 482.595 226.137 481.661 226.804 481.661C227.604 481.661 228.137 482.195 228.137 482.861ZM318.804 484.595C318.671 486.861 313.604 493.528 313.471 491.395C313.471 488.995 316.404 482.995 317.737 482.995C318.271 482.995 318.804 483.795 318.804 484.595ZM419.471 490.461C415.737 492.995 411.071 496.061 408.937 497.261C403.071 500.328 390.804 504.328 390.804 503.128C390.804 501.795 397.071 493.395 399.071 492.061C400.004 491.528 402.271 490.995 404.137 490.861C406.004 490.861 410.537 489.661 414.137 488.328C425.204 484.461 426.937 485.128 419.471 490.461ZM306.804 494.995C306.804 496.328 305.871 495.928 304.137 493.661C302.671 491.795 301.471 489.395 301.471 488.328C301.471 486.995 302.404 487.395 304.137 489.661C305.604 491.528 306.804 493.928 306.804 494.995ZM300.404 493.395C301.737 495.395 303.471 497.928 304.271 499.128C305.604 500.995 305.071 502.461 300.671 508.061C297.871 511.661 291.871 519.928 287.471 526.328C275.204 544.061 276.537 542.861 273.337 538.995C270.271 535.395 270.271 535.128 274.004 514.328C275.337 507.395 276.671 503.261 278.137 502.328C279.337 501.528 284.137 498.461 288.537 495.528C293.071 492.461 297.071 489.928 297.471 489.795C297.871 489.795 299.204 491.261 300.404 493.395ZM379.737 492.861C386.537 492.861 392.137 493.128 392.137 493.395C392.137 494.328 384.937 503.661 383.071 505.261C381.071 506.861 360.271 506.728 354.804 504.995C351.871 504.061 352.004 502.861 355.471 494.061C357.204 489.928 357.337 489.795 362.271 491.261C365.071 491.928 372.937 492.728 379.737 492.861ZM323.871 493.261C324.137 494.328 323.204 494.995 321.604 494.995C318.804 494.995 316.937 493.261 318.404 491.795C319.737 490.461 323.204 491.395 323.871 493.261ZM271.337 501.261C272.271 503.528 264.404 508.461 260.804 508.061C257.471 507.528 255.071 498.595 257.471 495.661C258.804 494.061 259.871 494.195 264.804 496.595C268.137 498.195 271.071 500.328 271.337 501.261ZM248.137 500.328C246.537 503.395 244.804 505.395 244.004 504.861C243.204 504.461 241.471 505.128 240.004 506.461C238.671 507.661 237.071 508.328 236.404 507.795C235.471 506.728 247.737 494.995 249.737 494.995C250.404 494.995 249.604 497.395 248.137 500.328ZM227.737 501.261L229.737 506.195L225.337 509.928C222.804 511.928 219.737 514.595 218.537 515.661C214.804 518.861 213.337 518.195 214.937 513.928C217.204 507.661 223.471 496.328 224.537 496.328C225.071 496.328 226.537 498.595 227.737 501.261ZM334.004 500.461C338.804 502.728 342.804 504.995 342.804 505.661C342.804 507.528 332.271 510.995 326.671 510.995C323.737 510.995 320.137 510.328 318.671 509.661C313.604 506.861 316.937 496.328 322.804 496.328C324.137 496.328 329.204 498.195 334.004 500.461ZM313.471 501.795C313.471 503.261 312.937 504.195 312.137 503.661C311.471 503.261 311.204 502.061 311.737 500.995C312.671 498.195 313.471 498.461 313.471 501.795ZM309.471 506.995C311.204 510.195 309.604 519.261 304.671 535.261C299.471 551.795 293.604 556.595 284.271 551.795C276.937 547.928 276.804 546.728 283.737 536.861C291.071 526.461 307.337 504.328 307.737 504.328C307.871 504.328 308.671 505.528 309.471 506.995ZM270.804 517.795C269.871 522.195 268.671 526.061 268.137 526.328C267.071 526.995 262.804 516.861 262.804 513.928C262.804 511.661 271.337 506.595 272.004 508.461C272.271 509.261 271.737 513.528 270.804 517.795ZM367.204 509.128C373.604 509.528 378.804 510.195 378.804 510.595C378.804 512.861 353.204 540.861 349.071 543.128C345.204 545.261 344.137 539.661 346.137 528.195C348.804 512.861 350.937 506.861 353.337 507.528C354.537 507.928 360.671 508.595 367.204 509.128ZM239.471 510.995C239.871 511.661 239.604 512.328 238.937 512.328C238.137 512.328 237.471 511.661 237.471 510.995C237.471 510.195 237.737 509.661 238.004 509.661C238.404 509.661 239.071 510.195 239.471 510.995ZM270.271 542.595C268.937 543.928 267.737 541.928 268.937 540.195C269.737 538.728 270.004 538.728 270.537 540.195C270.804 541.128 270.671 542.195 270.271 542.595ZM270.804 548.328C270.804 548.861 269.871 550.061 268.804 550.995C267.071 552.461 266.804 552.061 266.804 549.261C266.804 546.728 267.337 545.928 268.804 546.461C269.871 546.995 270.804 547.795 270.804 548.328Z" fill="#243727"/>
<path d="M805.47 169.661C803.07 171.261 805.204 171.261 808.804 169.661C810.537 168.861 810.804 168.461 809.47 168.461C808.404 168.461 806.537 168.995 805.47 169.661Z" fill="black"/>
<path d="M710.803 267.128C702.136 268.595 678.536 275.128 679.336 275.928C679.603 276.195 684.003 275.528 688.936 274.195C703.603 270.728 728.003 270.062 737.47 272.995C741.736 274.328 746.27 274.995 747.47 274.462C750.536 273.395 749.47 269.395 745.47 267.395C741.603 265.395 722.003 265.395 710.803 267.128Z" fill="black"/>
<path d="M170.139 309.661C169.739 310.461 170.272 310.595 171.339 310.195C173.739 309.261 174.139 308.328 172.272 308.328C171.472 308.328 170.539 308.861 170.139 309.661Z" fill="black"/>
<path d="M175.071 335.394C174.137 339.26 173.071 343.794 172.537 345.527C172.004 347.66 172.271 348.46 173.071 347.927C174.537 346.994 178.271 330.06 177.204 328.994C176.937 328.727 176.004 331.527 175.071 335.394Z" fill="black"/>
<path d="M171.738 350.595C170.671 352.461 169.205 360.328 170.005 360.328C170.805 360.328 173.605 350.728 172.938 349.928C172.671 349.661 172.138 349.928 171.738 350.595Z" fill="black"/>
<path d="M463.613 801.521L462.718 799.116L462.278 797.908L461.921 796.672C461.69 795.847 461.43 795.027 461.223 794.195L460.691 791.674C460.11 788.287 459.902 784.815 460.263 781.369C460.603 777.922 461.607 774.537 463.137 771.422C464.668 768.302 466.735 765.466 469.123 762.96C473.971 757.988 479.934 754.3 486.154 751.421C489.276 749.988 492.474 748.736 495.709 747.607C498.954 746.504 502.228 745.507 505.517 744.562C499.066 746.838 492.602 749.107 486.485 752.115C480.39 755.11 474.519 758.745 469.844 763.651C467.494 766.073 465.463 768.812 463.951 771.826C462.425 774.835 461.473 778.113 461.023 781.46C460.579 784.813 460.697 788.23 461.172 791.594C461.602 794.978 462.596 798.256 463.613 801.52V801.521Z" fill="url(#paint2_linear_280_15)"/>
<path d="M198.233 783.187C241.073 808.687 197.893 848.467 164.233 856.627C150.293 860.027 135.163 861.387 126.153 860.707C118.673 871.757 110.343 882.297 100.653 891.647C86.2033 905.247 68.8633 911.367 50.6733 909.157C15.9933 905.077 27.5533 865.297 65.9733 878.217C69.5433 879.577 68.3533 881.617 65.4633 880.427C38.2633 870.227 31.4633 903.207 54.9233 904.397C70.0533 905.077 82.6333 897.767 94.0233 886.717C116.293 864.787 129.213 819.567 158.113 787.097C161.343 783.697 164.063 780.467 167.123 777.577C147.743 774.687 125.473 776.047 111.193 778.767C89.7733 782.677 54.4133 795.767 50.3333 821.097C48.4633 832.997 56.7933 842.347 66.9933 842.687C77.7033 843.027 88.5833 833.507 92.4933 822.117C93.0033 819.567 94.8733 819.907 94.8733 822.287C94.7033 837.757 79.9133 846.427 66.6533 846.087C53.2233 845.577 40.6433 837.077 41.4933 819.737C43.0233 789.307 86.2033 776.727 110.513 773.157C129.383 770.437 151.653 769.247 171.713 773.327C175.453 770.437 179.363 768.057 184.463 766.187C189.903 763.977 190.243 766.187 186.163 768.737C184.463 769.927 181.403 772.137 178.513 775.027C185.653 776.897 192.283 779.617 198.233 783.187ZM194.323 786.757C189.223 783.357 182.593 780.807 175.283 779.107C157.943 803.417 145.023 831.807 128.533 857.137C137.203 857.477 148.083 855.777 158.793 852.547C195.683 841.327 221.013 804.607 194.323 786.757Z" fill="#243727"/>
<path d="M248.033 871.757C242.933 882.127 232.563 902.527 222.363 903.377C216.753 903.717 208.763 899.297 213.863 881.447C211.143 885.867 206.553 892.667 201.623 897.427C182.073 916.127 169.153 886.377 194.823 855.607C205.023 843.537 224.573 837.247 234.263 847.787C236.643 850.337 235.283 853.227 232.393 852.717C230.523 846.427 224.233 845.067 217.943 848.467C210.293 852.717 201.453 862.747 195.333 872.777C193.973 875.157 189.383 883.487 188.363 889.947C186.663 901.847 196.013 900.487 204.003 890.967C209.953 883.827 214.713 875.497 219.133 867.167C222.873 860.027 225.253 855.947 230.693 856.287C232.903 856.457 235.453 857.477 237.833 856.967C234.263 860.537 224.233 878.387 222.023 888.757C220.663 895.727 221.513 898.957 223.723 898.957C230.863 899.297 242.083 877.707 245.653 870.397C247.183 867.337 249.733 868.357 248.033 871.757Z" fill="#243727"/>
<path d="M287.406 838.437C289.106 838.437 288.766 842.177 287.066 842.177H277.206C271.426 852.037 264.626 861.047 254.596 870.227C253.066 874.647 250.686 887.567 250.686 887.567C248.136 898.957 255.956 900.487 261.566 896.407C269.386 890.627 274.996 879.917 279.586 870.737C280.946 867.677 283.496 868.357 281.796 871.757C274.316 887.397 271.426 891.987 265.136 898.277C255.956 907.117 239.126 904.227 241.676 885.527C243.206 873.967 249.496 855.437 254.936 842.177H246.096C244.226 842.177 244.566 838.437 246.436 838.437H256.636C260.546 829.937 264.796 821.607 269.046 814.297C280.776 793.727 299.136 796.617 286.556 823.817C284.176 828.917 281.796 833.677 279.246 838.437H287.406ZM284.006 821.097C287.236 813.957 289.616 798.827 279.076 813.617C274.996 819.397 271.256 828.747 267.006 838.437H275.506C278.736 832.657 281.626 826.707 284.006 821.097ZM273.296 842.177H265.306C261.736 850.507 258.506 858.837 256.126 864.787C262.586 858.157 268.366 850.337 273.296 842.177Z" fill="#243727"/>
<path d="M326.029 871.927C321.099 882.127 312.429 900.147 301.379 902.867C295.599 904.227 285.229 899.127 292.029 881.447C294.579 874.477 300.699 865.637 302.569 861.387C304.949 855.777 298.999 853.567 289.479 853.397L287.439 858.837C283.359 869.547 275.199 888.417 266.869 896.407C265.509 897.597 264.489 895.727 265.509 894.197C278.939 876.517 288.289 850.847 291.689 831.807C293.389 822.287 304.439 826.537 302.059 837.927C301.039 842.687 295.599 847.277 292.709 849.317C298.999 849.657 307.839 849.487 316.169 848.637C317.359 851.017 314.639 857.477 312.599 861.727C310.049 866.997 292.709 898.107 302.909 898.617C309.879 898.787 320.419 877.537 323.989 870.227C325.519 867.337 327.729 868.527 326.029 871.927Z" fill="#243727"/>
<path d="M393.82 872.097C382.26 895.557 377.84 902.697 353.36 911.537C342.65 930.747 325.82 956.757 300.66 956.757C283.66 956.757 281.96 945.537 287.06 936.017C290.29 929.727 296.41 925.137 303.04 922.077C314.43 916.637 330.58 913.747 344.35 909.837C350.81 898.617 356.25 880.427 358.97 871.587C353.19 881.787 342.14 902.867 329.05 902.867C325.65 902.867 319.7 901.677 318.34 895.217C316.81 887.907 321.06 881.617 324.12 875.497C323.1 875.497 321.57 874.987 322.59 872.777L325.65 866.827C329.05 860.367 332.62 853.397 335.17 848.127C336.53 845.407 338.57 844.557 341.8 844.557H352.17C350.64 845.917 347.92 847.107 345.88 850.677C340.1 860.537 335.34 870.567 330.58 880.767C322.42 898.447 329.56 905.247 340.61 892.497C350.13 881.447 360.84 861.557 367.3 848.127C368.66 845.407 370.7 844.557 373.93 844.557H383.11C376.65 848.977 374.1 855.777 369.85 867.167C365.6 878.557 361.18 892.667 356.25 906.097C363.73 903.887 374.1 898.787 380.73 889.267C386 881.617 389.74 873.797 391.44 870.567C392.97 867.507 395.52 868.697 393.82 872.097ZM341.29 915.277C330.24 918.167 315.62 921.567 305.93 925.817C288.59 933.297 282.13 953.357 296.75 953.357C311.71 953.357 329.73 932.277 337.55 921.567L341.29 915.277Z" fill="#243727"/>
<path d="M439.45 871.927C431.12 889.607 424.32 903.717 405.62 903.717C378.76 903.717 387.6 873.117 399.84 856.627C406.13 848.127 414.46 843.197 422.62 843.197C431.12 843.197 435.2 847.957 434.35 854.927C433.67 860.537 426.7 867.677 422.96 863.937C424.83 861.727 427.38 858.327 428.23 855.267C429.76 849.317 428.06 846.937 424.83 846.937C418.71 846.937 411.4 854.757 406.64 861.557C403.58 865.977 397.29 877.707 397.29 887.567C397.29 894.367 400.01 900.657 407.32 900.657C422.11 900.657 430.27 884.167 437.07 870.737C438.6 867.677 440.98 868.527 439.45 871.927Z" fill="#243727"/>
<path d="M436.18 875.497C435.16 875.497 433.63 874.987 434.65 872.777L443.66 853.227C445.19 850.167 442.64 846.937 441.96 846.087L451.31 845.917C456.75 845.917 456.75 847.787 454.88 851.867L441.28 883.657C438.05 891.137 434.48 898.617 430.74 906.097C440.94 902.187 448.08 899.637 455.73 888.417C461.17 880.427 464.23 873.457 465.93 870.227C467.46 867.167 470.01 868.357 468.31 871.757C456.75 895.387 452.33 902.697 427.85 911.537C417.14 930.747 400.31 956.757 375.15 956.757C358.15 956.757 356.45 945.537 361.55 936.017C364.78 929.727 370.9 925.137 377.53 922.077C388.92 916.637 405.07 913.747 418.84 909.837C420.71 906.607 422.75 903.207 424.28 899.977C428.36 891.817 433.29 881.447 436.18 875.497ZM415.61 915.277C404.73 918.167 390.11 921.567 380.42 925.817C362.91 933.297 356.62 953.357 371.07 953.357C386.03 953.357 404.22 932.277 411.87 921.567C413.23 919.697 414.42 917.487 415.61 915.277ZM462.02 831.977C461.34 835.887 457.77 838.947 453.86 838.947C449.95 838.947 447.4 835.887 447.91 831.977C448.59 828.067 452.33 825.007 456.07 825.007C459.98 825.007 462.7 828.067 462.02 831.977Z" fill="#243727"/>
<path d="M527.769 871.757C522.669 882.127 512.299 902.527 502.099 903.377C496.489 903.717 488.499 899.297 493.599 881.447C490.879 885.867 486.289 892.667 481.359 897.427C461.809 916.127 448.889 886.377 474.559 855.607C484.759 843.537 504.309 837.247 513.999 847.787C516.379 850.337 515.019 853.227 512.129 852.717C510.259 846.427 503.969 845.067 497.679 848.467C490.029 852.717 481.189 862.747 475.069 872.777C473.709 875.157 469.119 883.487 468.099 889.947C466.399 901.847 475.749 900.487 483.739 890.967C489.689 883.827 494.449 875.497 498.869 867.167C502.609 860.027 504.989 855.947 510.429 856.287C512.639 856.457 515.189 857.477 517.569 856.967C513.999 860.537 503.969 878.387 501.759 888.757C500.399 895.727 501.249 898.957 503.459 898.957C510.599 899.297 521.819 877.707 525.389 870.397C526.919 867.337 529.469 868.357 527.769 871.757Z" fill="#243727"/>
<path d="M690.527 922.077C695.457 923.267 695.627 926.667 689.167 925.137C681.347 923.097 664.517 921.907 650.917 922.077C629.157 953.527 582.917 972.057 563.877 965.087C532.257 953.527 566.427 926.327 608.757 920.377C617.597 919.017 634.087 917.827 644.797 917.657C653.127 903.547 658.397 891.647 661.967 875.837L662.647 872.947C652.447 882.637 620.317 906.267 592.267 896.917C571.017 889.607 557.587 856.797 575.947 818.207C562.857 804.607 559.627 784.887 575.267 768.907C577.647 766.357 580.197 766.697 577.477 770.267C566.257 784.377 568.297 800.697 578.667 813.107C579.687 810.897 581.047 808.687 582.407 806.477C600.427 777.067 634.767 760.407 662.137 764.657C714.667 772.817 703.107 835.207 631.197 836.227C614.707 836.567 597.367 831.807 586.487 824.497C571.527 856.797 578.157 884.847 598.047 891.307C620.487 898.617 651.427 880.597 656.187 869.207C666.047 846.087 677.607 852.887 676.417 861.557C674.037 880.427 665.707 897.257 653.297 917.657C668.427 917.827 680.327 919.527 690.527 922.077ZM662.987 769.757C639.867 766.357 609.947 784.547 593.967 810.727C592.097 813.787 590.227 817.017 588.697 820.077C599.237 828.067 616.577 832.657 633.917 830.957C691.207 825.177 704.637 776.047 662.987 769.757ZM642.077 922.247C631.367 922.587 620.317 923.437 610.797 924.967C580.707 929.557 543.307 955.397 568.297 960.667C583.427 964.067 622.187 950.807 642.077 922.247Z" fill="#243727"/>
<path d="M747.854 871.077C744.964 877.537 735.444 901.677 721.164 901.677C716.064 901.677 712.494 899.807 710.284 897.257C705.524 900.827 700.424 903.207 695.494 903.037C682.574 902.697 680.704 887.227 687.164 872.097C693.794 856.457 707.904 843.197 719.464 843.537C732.384 843.707 734.254 859.347 727.794 874.477C725.244 880.427 719.974 888.417 713.514 894.537C714.874 897.087 717.424 898.787 721.504 898.787C732.384 898.787 741.224 877.707 745.304 869.547C746.154 867.847 749.044 868.527 747.854 871.077ZM723.034 849.147C715.724 847.107 705.184 857.987 698.894 871.417C692.264 885.357 690.734 897.257 696.854 899.127C700.084 899.977 704.334 898.277 708.414 894.877C706.544 892.157 705.694 889.097 705.694 886.547C705.864 882.637 707.394 879.237 711.644 879.237C714.534 879.237 716.744 881.617 716.744 884.337C716.744 885.017 716.574 885.527 716.404 886.207C718.274 883.487 720.144 880.257 721.674 877.027C728.304 863.087 729.154 851.017 723.034 849.147ZM753.634 816.847C752.274 819.737 723.034 832.487 721.844 831.977C720.994 831.467 720.824 830.447 721.334 829.767C722.014 828.407 739.524 816.507 742.244 814.297C744.964 812.257 748.704 810.557 752.104 812.257C753.804 813.107 754.484 815.147 753.634 816.847Z" fill="#243727"/>
<path d="M791.537 871.927C786.607 882.127 777.937 900.147 766.887 902.867C761.107 904.227 750.737 899.127 757.537 881.447C760.087 874.477 766.207 865.637 768.077 861.387C770.457 855.777 764.507 853.567 754.987 853.397L752.947 858.837C748.867 869.547 740.707 888.417 732.377 896.407C731.017 897.597 729.997 895.727 731.017 894.197C744.447 876.517 753.797 850.847 757.197 831.807C758.897 822.287 769.947 826.537 767.567 837.927C766.547 842.687 761.107 847.277 758.217 849.317C764.507 849.657 773.347 849.487 781.677 848.637C782.867 851.017 780.147 857.477 778.107 861.727C775.557 866.997 758.217 898.107 768.417 898.617C775.387 898.787 785.927 877.537 789.497 870.227C791.027 867.337 793.237 868.527 791.537 871.927Z" fill="#243727"/>
<path d="M835.527 870.907C829.237 885.017 819.037 907.797 799.827 902.017C797.447 903.037 795.067 903.717 792.857 903.717C772.287 903.717 776.197 880.087 784.357 879.747C788.947 871.077 794.557 860.027 798.977 850.337C802.037 843.707 807.137 836.567 813.087 835.717C815.637 835.377 817.677 835.717 819.377 836.567C822.437 838.097 821.757 840.987 818.697 839.457C816.997 838.777 814.957 838.437 813.257 839.287C805.437 843.027 807.137 854.757 809.687 860.877C812.407 867.337 816.147 873.457 815.807 880.937C815.467 887.567 810.367 895.387 803.737 899.807L804.927 899.977C810.707 900.827 815.977 897.257 820.227 892.157C824.137 887.397 829.407 876.857 832.977 869.887C833.827 868.187 836.377 869.207 835.527 870.907ZM805.437 880.937C805.947 870.227 801.867 856.287 803.227 848.637C798.637 857.817 791.327 872.607 787.247 880.087C787.247 880.087 790.987 879.917 790.817 885.527C790.477 891.987 794.047 896.747 797.957 898.617C801.697 895.727 804.927 889.947 805.437 880.937ZM795.067 900.147C791.497 897.937 788.607 893.857 788.267 887.397C782.827 892.837 785.037 900.827 791.667 900.827C792.857 900.827 794.047 900.657 795.067 900.147Z" fill="#243727"/>
<path d="M867.633 806.307C871.714 800.357 875.284 797.807 879.023 797.977H879.873C882.083 798.147 884.633 799.167 887.013 798.657C878.344 805.287 861.004 832.827 849.614 855.437C847.404 859.857 845.194 864.787 843.494 869.887C850.634 861.047 861.344 849.827 871.203 846.087C893.133 837.927 891.094 856.967 878.174 866.147C873.074 869.717 868.483 872.097 861.003 872.777C854.543 888.587 865.423 909.837 881.063 893.177C885.313 888.587 890.073 879.747 894.833 869.887C896.193 867.167 898.234 868.697 897.044 871.417C883.614 902.357 873.073 905.077 863.214 904.057C857.094 903.377 851.823 898.447 850.123 889.607C848.083 878.557 854.374 870.397 858.114 870.057C861.854 870.397 867.634 868.187 871.544 864.957C882.254 856.287 874.773 844.387 855.224 861.047C850.804 864.957 845.874 870.057 841.284 876.517C838.224 882.297 833.633 900.657 836.523 903.037H825.813C823.433 903.037 823.773 901.507 824.453 899.297C827.513 887.567 833.294 877.877 838.393 866.147C830.573 880.937 823.773 893.177 820.373 896.407C819.013 897.597 817.993 895.727 819.013 894.197C830.573 878.897 853.013 828.067 867.633 806.307Z" fill="#243727"/>
<path d="M956.421 871.757C951.321 882.127 940.951 902.527 930.751 903.377C925.141 903.717 917.151 899.297 922.251 881.447C919.531 885.867 914.941 892.667 910.011 897.427C890.461 916.127 877.541 886.377 903.211 855.607C913.411 843.537 932.961 837.247 942.651 847.787C945.031 850.337 943.671 853.227 940.781 852.717C938.911 846.427 932.621 845.067 926.331 848.467C918.681 852.717 909.841 862.747 903.721 872.777C902.361 875.157 897.771 883.487 896.751 889.947C895.051 901.847 904.401 900.487 912.391 890.967C918.341 883.827 923.101 875.497 927.521 867.167C931.261 860.027 933.641 855.947 939.081 856.287C941.291 856.457 943.841 857.477 946.221 856.967C942.651 860.537 932.621 878.387 930.411 888.757C929.051 895.727 929.901 898.957 932.111 898.957C939.251 899.297 950.471 877.707 954.041 870.397C955.571 867.337 958.121 868.357 956.421 871.757Z" fill="#243727"/>
<defs>
<linearGradient id="paint0_linear_280_15" x1="477.668" y1="552.972" x2="477.668" y2="833.227" gradientUnits="userSpaceOnUse">
<stop stop-color="#9F8239"/>
<stop offset="1" stop-color="#D1C08C"/>
</linearGradient>
<linearGradient id="paint1_linear_280_15" x1="627.069" y1="564.004" x2="627.069" y2="816.004" gradientUnits="userSpaceOnUse">
<stop stop-color="#9F8239"/>
<stop offset="1" stop-color="#D1C08C"/>
</linearGradient>
<linearGradient id="paint2_linear_280_15" x1="472.993" y1="804.443" x2="488.226" y2="739.784" gradientUnits="userSpaceOnUse">
<stop stop-color="#9F8239"/>
<stop offset="1" stop-color="#D1C08C"/>
</linearGradient>
</defs>
</svg>
